<svg width="229" height="155" viewBox="0 0 229 155" fill="none" xmlns="http://www.w3.org/2000/svg">
<path d="M228.525 126.254C226.285 126.875 223.933 128.298 221.832 127.994C204.768 125.573 189.306 131.632 173.581 136.268C161.772 139.748 150.55 141.281 138.503 135.294C133.574 132.849 125.78 134.491 119.701 135.903C109.93 138.166 100.398 141.56 90.9276 144.906C81.983 148.058 74.2143 145.758 68.5973 139.285C62.4299 132.18 55.2242 131.948 47.468 134.041C33.7446 137.728 21.5974 144.651 10.3135 153.01C6.79816 155.613 0.543172 153.74 0.0177542 149.493C-0.182405 147.851 1.34382 145.052 2.88254 144.298C12.6528 139.492 22.5357 134.832 32.6187 130.659C41.6259 126.936 51.0334 123.2 60.9538 126.12C65.8452 127.568 70.5989 130.622 74.452 133.98C79.3434 138.251 84.2848 137.825 89.7392 136.353C102.074 133.007 114.309 129.259 126.794 126.522C131.16 125.561 136.639 125.962 140.667 127.751C149.674 131.742 158.369 131.583 167.451 128.907C178.272 125.707 189.018 122.142 200.014 119.66C204.818 118.577 210.185 119.72 215.289 120.025C217.879 120.183 220.543 120.39 222.983 121.144C225.122 121.801 226.998 123.261 229 124.368C228.85 124.989 228.7 125.621 228.537 126.242L228.525 126.254Z" fill="url(#paint0_linear_0_172)"/>
<path d="M22.7805 21.1963H47.2566C57.8693 21.1963 67.1434 20.7182 70.1073 20.7182C73.6449 20.7182 74.7922 22.4392 74.7922 25.6899L73.6449 36.1114C73.5493 37.45 72.88 38.1192 71.8283 38.1192C70.9678 38.1192 70.2985 37.6412 69.7249 36.5895C67.3346 31.2353 63.7971 28.4626 58.6341 27.3153C56.2439 26.5504 49.36 26.2636 45.8224 26.2636C45.1532 26.2636 44.7707 26.646 44.7707 27.3153L44.1015 45.9592C44.1015 47.8714 44.8663 48.6363 46.7785 48.6363C48.5951 48.6363 54.7141 48.5407 56.3395 48.2539C59.6859 47.967 62.9366 47.3934 65.7093 46.4373C66.4741 46.1504 67.1434 45.9592 67.7171 45.9592C68.6732 45.9592 69.1512 46.4373 69.1512 47.5846L68.0995 55.6158C68.0995 56.7631 67.6215 57.7192 66.3785 57.7192C64.4663 57.7192 61.5024 56.2851 57.4868 55.6158C54.3317 54.7553 50.2205 54.5641 46.5873 54.5641C44.7707 54.5641 43.8146 55.807 43.719 57.3368L43.241 71.3914C43.241 77.2236 46.1093 80.0919 52.3239 80.7612C53.0888 80.7612 53.6624 81.4304 53.6624 82.3865C53.6624 83.5339 52.802 84.2031 51.9415 84.2031H20.8683C19.9122 84.2031 19.3385 83.6295 19.3385 82.5778C19.3385 81.6217 19.9122 80.9524 20.7727 80.6656C25.7444 79.0402 26.1268 74.5465 26.318 70.1485L27.6566 32.4782C27.6566 28.8451 26.7961 25.3075 22.398 24.7339C21.6332 24.6382 21.1551 23.969 21.1551 23.1085C21.1551 21.9612 21.92 21.1963 22.7805 21.1963ZM106.783 20.6226C110.798 20.6226 114.24 21.1963 114.718 22.5348L132.024 71.2002C133.553 75.5026 135.466 78.5621 140.055 80.4743C140.82 80.8568 141.871 81.4304 141.871 82.4821C141.871 83.6295 141.011 84.2031 140.055 84.2031H110.511C109.555 84.2031 108.886 83.4382 108.886 82.4821C108.886 81.7173 109.46 80.8568 110.416 80.6656C112.806 80.3787 115.005 79.2314 115.005 76.3631C115.005 75.5982 114.814 74.7378 114.527 73.8773L111.85 66.2285C111.659 65.4636 111.372 65.2724 110.607 65.2724H93.7797C90.529 65.2724 87.8519 66.2285 86.609 69.288L84.4099 74.6421C84.1231 75.407 83.9319 76.2675 83.9319 76.9368C83.9319 79.9963 86.7046 80.6656 89.1904 80.6656C90.2421 80.6656 90.7202 81.5261 90.7202 82.3865C90.7202 83.3426 90.1465 84.2031 89.1904 84.2031H69.9729C68.7299 84.2031 68.1563 83.4382 68.1563 82.5778C68.1563 81.8129 68.5387 81.048 69.5904 80.6656C74.3709 79.0402 76.0919 75.7895 77.7173 71.7739L97.4129 22.8217C98.0821 21.1963 102.098 20.6226 106.783 20.6226ZM97.9865 39.9358L90.8158 58.1973C90.6246 58.4841 90.6246 58.5797 90.6246 58.7709C90.6246 58.9621 90.8158 58.9621 91.007 58.9621H107.548C108.599 58.9621 108.886 58.6753 108.886 58.006C108.886 57.6236 108.79 57.2412 108.695 56.7631L103.149 40.7007C102.193 37.8324 101.428 35.4421 100.855 32.5739C100.855 32.3826 100.759 32.287 100.664 32.287C100.568 32.287 100.472 32.3826 100.472 32.5739C99.8031 34.9641 98.9426 37.45 97.9865 39.9358ZM179.042 20.1446C199.024 20.1446 208.585 33.8168 208.585 48.9231C208.585 66.1329 196.156 84.1075 172.732 84.1075C152.462 84.1075 143.093 70.8178 143.093 55.9982C143.093 38.5017 156 20.1446 179.042 20.1446ZM172.158 28.7495C162.501 28.7495 158.295 36.8763 158.295 46.6285C158.295 59.9182 166.326 75.5026 179.52 75.5026C189.272 75.5026 193.479 67.567 193.479 58.006C193.479 44.6207 185.161 28.7495 172.158 28.7495ZM179.807 86.4021C189.272 86.4021 194.626 95.1982 203.996 95.1982C206.004 95.1982 208.107 94.9114 210.211 93.9553C210.88 93.5729 211.454 93.3817 212.027 93.3817C212.888 93.3817 213.461 93.9553 213.461 94.8158C213.461 95.2939 213.079 95.8675 212.792 96.5368C208.585 102.943 202.658 105.524 197.399 105.524C184.109 105.524 180.954 92.7124 171.489 92.7124C169.863 92.7124 169.003 93.0948 168.429 93.0948C167.664 93.0948 167.186 92.5212 167.186 91.9475C167.186 91.5651 167.473 90.9914 167.951 90.609C171.68 87.6451 175.791 86.4021 179.807 86.4021Z" fill="white"/>
<defs>
<linearGradient id="paint0_linear_0_172" x1="229" y1="119.203" x2="176.855" y2="234.124" gradientUnits="userSpaceOnUse">
<stop stop-color="#CC00FF"/>
<stop offset="1" stop-color="#8000FF"/>
</linearGradient>
</defs>
</svg>
