<svg width="435" height="163" viewBox="0 0 435 163" fill="none" xmlns="http://www.w3.org/2000/svg">
<path d="M30.5795 14.2512L29.3366 50.0092C29.3366 56.0326 32.9698 57.4668 38.4195 57.4668C43.9649 57.4668 48.5541 55.937 51.7093 52.6863C53.9083 50.6785 55.5337 48.0014 56.3942 45.0375C56.7766 43.9858 57.4459 43.3165 58.6888 43.3165C60.0273 43.3165 60.6966 44.2726 60.6966 45.8024L59.5493 59.1878C59.3581 62.1517 56.9678 63.8726 53.7171 63.8726C50.3707 63.8726 42.0527 63.2034 32.3961 63.2034H6.77268C5.9122 63.2034 5.33854 62.6297 5.33854 61.578C5.33854 60.6219 5.81659 59.9526 6.67707 59.6658C11.2663 58.1361 12.0312 54.0248 12.2224 49.7224L13.561 11.6697C13.561 8.03654 12.8917 4.30775 8.49366 3.7341C7.53756 3.63849 7.05951 2.96922 7.05951 2.10873C7.05951 0.961415 7.92 0.196536 8.78049 0.196536H36.2205C37.081 0.196536 37.6546 0.865807 37.6546 1.91751C37.6546 2.87361 37.1766 3.54288 36.3161 3.7341C31.3444 5.26386 30.6751 9.94873 30.5795 14.2512ZM91.837 15.4941C103.693 15.4941 111.15 22.378 111.15 30.1224C111.15 33.5643 109.238 36.6239 104.266 37.7712C98.4341 39.2053 81.9892 41.2131 78.4516 41.2131C78.0692 41.2131 77.878 41.4043 77.878 41.8824C78.356 43.4121 78.9297 44.7507 79.9814 46.1848C83.3277 50.7741 88.9687 53.0687 94.8965 53.0687C100.059 53.0687 105.222 51.1565 109.142 47.619C109.429 47.2365 109.907 47.0453 110.385 47.0453C111.055 47.0453 111.819 47.5234 111.819 48.3839C111.819 48.5751 111.819 48.8619 111.724 49.1487C108.091 58.3273 97.8604 64.3507 87.0565 64.3507C74.1492 64.2551 63.8233 56.1282 63.8233 42.3604C63.8233 26.5848 76.7306 15.4941 91.837 15.4941ZM85.9092 23.0473C79.5033 23.0473 76.157 28.497 76.157 34.7117C76.157 35.3809 76.2526 35.9546 76.3482 36.2414C76.4438 36.6239 76.635 36.9107 77.1131 36.9107C79.4077 36.9107 96.5219 33.8512 96.5219 32.7995C96.5219 30.4092 93.3667 23.0473 85.9092 23.0473ZM132.719 46.6629C132.719 50.6785 135.205 54.5985 139.507 54.5985C147.443 54.5985 147.73 45.898 147.73 41.7868V39.4921C147.73 39.2053 147.443 39.0141 147.156 39.0141C146.965 39.0141 146.583 39.2053 146.104 39.3009C141.515 40.6395 132.719 43.699 132.719 46.6629ZM131.381 26.6804C131.381 31.939 130.711 35.2853 127.461 35.2853C124.21 35.2853 119.334 32.417 119.334 29.2619C119.334 26.3936 122.68 23.2385 125.357 21.3263C130.807 17.5019 137.117 15.5897 143.619 15.5897C154.136 15.5897 163.888 21.0395 163.888 33.8512L163.314 50.3917C163.314 55.1721 165.418 57.5624 167.425 57.5624C168.095 57.5624 168.573 57.658 168.955 57.8492C169.338 58.0404 169.529 58.5185 169.529 58.9965C169.529 59.379 169.433 59.857 169.146 60.1439C167.234 62.2473 161.689 63.9682 157.482 63.9682C151.65 63.9682 147.634 61.2912 147.634 55.6502C147.634 55.5546 147.539 55.5546 147.347 55.5546C147.156 55.5546 146.965 55.5546 146.965 55.6502C144.192 61.1956 138.169 64.2551 131.954 64.2551C123.636 64.2551 117.9 58.4229 117.9 49.818C117.9 47.2365 118.186 46.1848 120.385 44.5595C124.975 41.2131 134.823 37.3887 146.391 34.9985C147.156 34.8073 147.73 34.9985 147.73 33.66C147.73 27.2541 142.089 24.3858 135.97 24.3858C135.014 24.3858 134.058 24.3858 133.293 24.577C132.145 24.7682 131.381 25.2463 131.381 26.6804ZM192.947 15.6853C194.286 15.6853 195.529 16.1634 196.485 17.1195L195.911 26.7761C195.911 27.0629 196.007 27.1585 196.102 27.1585C196.198 27.1585 196.294 27.0629 196.389 26.8717C199.449 20.9439 206.237 15.2073 211.113 15.2073C214.651 15.2073 215.224 19.9878 215.224 27.2541C215.224 30.9829 214.555 34.7117 211.782 34.7117C210.539 34.7117 209.201 34.2336 208.149 33.5643C205.759 32.417 202.986 30.218 200.309 30.218C197.441 30.218 196.294 32.9907 196.198 35.9546L195.72 49.34C195.72 55.5546 198.971 58.4229 206.333 59.6658C207.002 59.857 207.671 60.4307 207.671 61.3868C207.671 62.5341 206.811 63.2034 205.95 63.2034H174.017C173.156 63.2034 172.487 62.6297 172.487 61.578C172.487 60.6219 173.06 59.857 173.921 59.6658C179.179 58.3273 179.466 53.6424 179.562 49.0531L180.136 31.5565C180.136 27.9234 178.606 26.1068 174.017 26.1068C173.539 25.7243 173.156 25.1507 173.156 24.3858C173.156 23.4297 173.73 22.2824 175.355 22.0912C179.562 21.5175 184.916 19.3185 188.262 17.4063C189.697 16.4502 191.226 15.6853 192.947 15.6853ZM243.26 26.8717C246.607 19.6053 253.013 15.4941 259.801 15.4941C270.796 15.4941 275.003 22.5692 275.003 32.7039L274.334 50.5829C274.334 55.1721 274.62 58.9009 278.349 59.6658C279.21 59.857 279.783 60.4307 279.783 61.3868C279.783 62.5341 278.923 63.2034 278.062 63.2034H253.108C252.152 63.2034 251.578 62.6297 251.578 61.578C251.578 60.6219 252.152 59.9526 253.013 59.6658C257.602 58.1361 257.984 53.5468 258.176 49.0531L258.654 36.9107C258.654 32.2258 258.08 25.7243 251.578 25.7243C244.503 25.7243 243.356 33.4687 243.069 40.6395L242.687 51.7302C242.687 56.0326 243.356 58.9965 246.702 59.6658C247.563 59.857 248.041 60.4307 248.041 61.3868C248.041 62.5341 247.18 63.2034 246.32 63.2034H221.366C220.505 63.2034 219.836 62.6297 219.836 61.578C219.836 60.6219 220.41 59.9526 221.27 59.6658C225.764 57.8492 226.338 53.4512 226.529 49.0531L227.198 31.5565C227.198 27.9234 225.477 26.1068 220.888 26.1068C220.41 25.7243 220.123 25.1507 220.123 24.3858C220.123 23.4297 220.601 22.2824 222.226 22.0912C226.529 21.5175 231.883 19.3185 235.134 17.4063C236.663 16.4502 238.098 15.6853 239.914 15.6853C241.253 15.6853 242.4 16.1634 243.356 17.1195L242.782 26.7761C242.782 27.0629 242.878 27.1585 242.974 27.1585C243.069 27.1585 243.165 27.0629 243.26 26.8717Z" fill="white"/>
<path d="M39.3756 97.6229C43.3912 97.6229 46.8332 98.1965 47.3112 99.5351L64.6166 148.2C66.1463 152.503 68.0585 155.562 72.6478 157.475C73.4127 157.857 74.4644 158.431 74.4644 159.482C74.4644 160.63 73.6039 161.203 72.6478 161.203H43.1044C42.1483 161.203 41.479 160.438 41.479 159.482C41.479 158.718 42.0527 157.857 43.0088 157.666C45.399 157.379 47.5981 156.232 47.5981 153.363C47.5981 152.598 47.4068 151.738 47.12 150.878L44.4429 143.229C44.2517 142.464 43.9649 142.273 43.2 142.273H26.3727C23.122 142.273 20.4449 143.229 19.202 146.288L17.0029 151.642C16.7161 152.407 16.5249 153.268 16.5249 153.937C16.5249 156.997 19.2976 157.666 21.7834 157.666C22.8351 157.666 23.3132 158.526 23.3132 159.387C23.3132 160.343 22.7395 161.203 21.7834 161.203H2.56585C1.32293 161.203 0.749268 160.438 0.749268 159.578C0.749268 158.813 1.13171 158.048 2.18341 157.666C6.9639 156.04 8.68488 152.79 10.3102 148.774L30.0059 99.8219C30.6751 98.1965 34.6907 97.6229 39.3756 97.6229ZM30.5795 116.936L23.4088 135.198C23.2176 135.484 23.2176 135.58 23.2176 135.771C23.2176 135.962 23.4088 135.962 23.6 135.962H40.1405C41.1922 135.962 41.479 135.676 41.479 135.006C41.479 134.624 41.3834 134.241 41.2878 133.763L35.7424 117.701C34.7863 114.833 34.0215 112.442 33.4478 109.574C33.4478 109.383 33.3522 109.287 33.2566 109.287C33.161 109.287 33.0654 109.383 33.0654 109.574C32.3961 111.964 31.5356 114.45 30.5795 116.936ZM113.356 113.494C126.646 113.494 133.052 124.298 133.052 135.293C133.052 150.782 121.77 162.255 104.273 162.351C100.353 162.351 96.5286 161.873 92.4174 161.108C89.8359 160.63 88.3061 160.247 86.394 160.247C84.4818 160.247 82.5696 160.917 81.1354 161.49C80.6574 161.681 79.9881 161.777 79.6057 161.777C78.1715 161.777 77.1198 161.203 77.1198 159.769C77.1198 159.387 77.2154 158.909 77.311 158.239C78.4583 154.798 78.7452 150.878 79.032 143.802L80.3705 107.088C80.3705 103.264 77.311 102.117 74.1559 102.117C73.4866 101.734 73.1998 101.16 73.1998 100.3C73.1998 99.4395 73.6779 98.3878 75.3032 98.1965C79.6057 97.5273 84.8642 95.2326 88.1149 93.416C89.6447 92.46 91.0788 91.6951 92.991 91.6951C94.234 91.6951 95.9549 92.1731 96.911 93.1292L96.2418 113.016C96.0505 117.414 96.1461 120.187 95.3813 124.585C95.3813 124.872 95.4769 124.967 95.5725 124.967C95.6681 124.967 95.6681 124.872 95.7637 124.68C99.4925 117.414 106.185 113.494 113.356 113.494ZM104.751 124.202C97.3891 124.202 95.9549 132.042 95.6681 139.213L95.19 151.547C95.19 152.312 95.3813 152.598 95.9549 152.981C98.7276 155.084 102.17 156.327 105.229 156.327C112.304 156.327 117.276 151.164 117.276 141.699C117.276 132.712 112.687 124.202 104.751 124.202ZM167.862 113.59C184.211 113.59 191.764 124.202 191.764 135.484C191.764 148.583 181.916 162.255 162.794 162.255C146.158 162.255 138.892 152.025 138.892 140.743C138.892 127.644 148.931 113.59 167.862 113.59ZM161.647 120.952C155.719 120.952 153.616 126.401 153.616 132.807C153.616 142.559 160.213 154.893 168.913 154.893C174.459 154.893 176.849 150.113 176.849 144.28C176.849 134.337 170.73 120.952 161.647 120.952ZM234.529 137.205L234.72 129.078C234.72 125.35 232.521 123.629 228.027 123.629C227.549 123.342 227.167 122.577 227.167 121.908C227.167 120.952 227.645 119.804 229.27 119.613C233.477 119.039 239.5 116.84 242.847 114.737C244.376 113.877 245.811 113.207 247.627 113.207C248.87 113.207 250.591 113.685 251.643 114.641L250.495 146.384C250.495 150.304 251.643 152.981 253.842 154.128C254.607 154.511 255.563 154.893 256.328 155.084C256.901 155.276 257.188 155.754 257.188 156.423C257.188 156.997 256.806 157.475 256.423 157.857C253.651 160.247 248.87 161.873 244.568 161.873C238.735 161.873 234.624 158.813 234.624 153.077C234.624 152.407 234.624 151.738 234.72 151.069C234.72 150.782 234.624 150.686 234.529 150.686C234.337 150.686 234.242 150.782 234.242 150.973C231.565 157.857 224.203 162.351 217.414 162.351C206.419 162.351 202.595 155.276 202.595 145.141L203.169 129.078C203.169 125.35 200.97 123.629 196.476 123.629C195.807 123.342 195.52 122.577 195.52 121.908C195.52 120.952 195.998 119.804 197.623 119.613C201.926 119.039 207.758 116.84 211.104 114.737C212.634 113.877 214.068 113.207 215.789 113.207C217.128 113.207 218.944 113.685 219.805 114.641L218.944 140.934C218.944 145.81 219.422 151.738 226.019 151.738C233.094 151.738 234.433 144.376 234.529 137.205ZM266.277 146.766L267.042 123.629C267.042 123.151 266.851 123.055 266.277 123.055H259.967C259.106 122.959 258.819 122.003 258.724 120.76C258.724 119.518 259.011 118.275 260.062 118.083C268.858 115.693 275.36 110.435 278.706 102.499C278.993 101.734 280.332 101.352 281.479 101.352C282.817 101.352 283.965 101.83 283.965 102.881L283.487 115.119C283.487 115.502 283.678 115.789 284.156 115.789H297.255C298.497 115.884 298.88 116.936 298.88 118.275C298.88 119.804 298.306 121.43 297.063 121.525L283.391 122.959L282.722 142.081C282.722 145.141 283.2 147.531 284.73 149.157C286.259 150.782 288.554 151.547 290.944 151.547C292.856 151.547 294.769 151.069 296.585 149.826C296.872 149.73 297.35 149.539 297.637 149.539C298.593 149.539 299.262 150.304 299.262 151.356C299.262 151.929 299.071 152.312 298.784 152.79C295.247 158.431 287.98 162.351 281.096 162.351C276.029 162.351 272.014 160.821 269.528 157.857C267.233 155.18 266.277 151.356 266.277 146.766ZM331.184 117.605L331.375 108.809C331.375 105.367 330.132 102.212 326.212 101.734C325.352 101.638 324.874 100.969 324.874 100.109C324.874 98.9614 325.639 98.1965 326.595 98.1965H354.13C354.991 98.1965 355.66 98.9614 355.66 100.013C355.66 100.874 355.182 101.638 354.226 101.734C350.497 102.117 348.585 103.933 348.394 108.809L348.011 119.709V132.52C348.011 138.066 348.776 143.229 351.358 146.958C353.844 150.399 357.859 152.216 362.162 152.216C366.56 152.216 370.671 150.304 373.061 146.766C374.782 144.28 375.643 141.125 376.025 137.875C376.694 131.469 376.886 124.107 376.886 117.701V108.714C376.886 104.411 375.165 102.308 371.149 101.734C370.097 101.638 369.619 100.874 369.619 100.013C369.619 98.9614 370.193 98.1965 371.245 98.1965H390.653C391.609 98.1965 392.183 98.9614 392.183 100.013C392.183 100.874 391.801 101.638 390.749 101.734C386.829 102.499 384.821 104.411 384.821 108.809V117.797C384.821 124.202 384.726 130.991 383.865 137.205C383.387 140.36 382.622 143.516 381.475 146.288C377.077 156.901 367.611 162.255 356.329 162.351C345.908 162.351 336.634 158.048 333.096 148.009C331.471 143.324 330.897 137.683 330.897 131.373C330.897 128.122 331.088 121.143 331.184 117.605ZM419.572 113.494C431.715 113.494 433.627 117.701 433.627 123.724C433.627 125.828 433.244 128.409 433.149 130.417C433.149 131.278 432.575 131.756 431.619 131.756C431.141 131.756 430.567 131.373 430.281 130.799C426.361 124.872 418.999 120.76 412.306 120.76C409.055 120.76 407.047 122.195 407.047 124.394C407.047 127.358 412.88 129.078 418.138 130.704C424.735 132.807 430.854 135.198 433.436 140.552C434.201 142.273 434.487 144.185 434.487 146.097C434.487 148.774 433.818 151.26 432.288 153.363C428.082 159.482 418.903 162.351 410.585 162.351C398.06 162.255 395.67 157.57 395.67 150.399C395.67 148.678 395.67 146.193 395.957 144.185C395.957 143.229 396.722 142.846 397.486 142.846C398.156 142.846 398.538 143.133 398.825 143.611C403.414 150.878 412.306 155.084 419.285 155.084C422.441 155.084 424.353 153.746 424.353 151.547C424.353 148.2 419.094 146.575 413.549 144.854C407.239 142.846 400.833 140.265 398.251 134.815C397.486 133.094 397.008 131.182 397.008 129.27C397.008 126.784 397.773 124.298 399.207 122.099C403.127 116.458 411.541 113.494 419.572 113.494Z" fill="url(#paint0_linear_0_168)"/>
<defs>
<linearGradient id="paint0_linear_0_168" x1="331.364" y1="109.5" x2="38.4853" y2="246.887" gradientUnits="userSpaceOnUse">
<stop stop-color="#CC00FF"/>
<stop offset="1" stop-color="#8000FF"/>
</linearGradient>
</defs>
</svg>
