<svg width="468" height="132" viewBox="0 0 468 132" fill="none" xmlns="http://www.w3.org/2000/svg">
<path d="M446.525 104.051C444.285 104.672 441.933 106.095 439.832 105.791C422.768 103.37 407.306 109.429 391.581 114.065C379.772 117.544 368.55 119.077 356.503 113.091C351.574 110.646 343.78 112.288 337.701 113.7C327.93 115.963 318.398 119.357 308.928 122.703C299.983 125.854 292.214 123.555 286.597 117.082C280.43 109.976 273.224 109.745 265.468 111.838C251.745 115.525 239.597 122.448 228.313 130.806C224.798 133.41 218.543 131.537 218.018 127.29C217.818 125.648 219.344 122.849 220.883 122.095C230.653 117.289 240.536 112.629 250.619 108.456C259.626 104.732 269.033 100.997 278.954 103.917C283.845 105.365 288.599 108.419 292.452 111.777C297.343 116.048 302.285 115.622 307.739 114.15C320.074 110.804 332.309 107.056 344.794 104.319C349.16 103.358 354.639 103.759 358.667 105.548C367.674 109.538 376.369 109.38 385.451 106.703C396.272 103.504 407.018 99.9386 418.014 97.4565C422.818 96.3736 428.185 97.5173 433.289 97.8215C435.879 97.9797 438.543 98.1865 440.983 98.9409C443.122 99.5979 444.998 101.058 447 102.165C446.85 102.786 446.7 103.418 446.537 104.039L446.525 104.051Z" fill="url(#paint0_linear_0_161)"/>
<path d="M39.0088 19.9415C58.9912 19.9415 68.5522 34.0917 68.5522 49.2937C68.5522 66.6946 56.1229 85.1473 32.6985 85.1473C12.3337 85.1473 3.05951 71.3795 3.05951 56.4644C3.05951 38.9678 15.8712 19.9415 39.0088 19.9415ZM32.1249 28.6419C22.4683 28.6419 18.1659 37.1512 18.1659 46.999C18.1659 60.3844 26.1971 76.5424 39.3912 76.5424C49.1434 76.5424 53.4459 68.2244 53.4459 58.4722C53.4459 44.9912 45.1278 28.6419 32.1249 28.6419ZM111.296 60.0019L111.488 51.8751C111.488 48.1463 109.289 46.4254 104.795 46.4254C104.317 46.1385 103.935 45.3737 103.935 44.7044C103.935 43.7483 104.413 42.601 106.038 42.4098C110.245 41.8361 116.268 39.6371 119.615 37.5337C121.144 36.6732 122.578 36.0039 124.395 36.0039C125.638 36.0039 127.359 36.482 128.411 37.438L127.263 69.1805C127.263 73.1005 128.411 75.7776 130.61 76.9249C131.375 77.3073 132.331 77.6898 133.096 77.881C133.669 78.0722 133.956 78.5502 133.956 79.2195C133.956 79.7932 133.574 80.2712 133.191 80.6537C130.418 83.0439 125.638 84.6693 121.336 84.6693C115.503 84.6693 111.392 81.6098 111.392 75.8732C111.392 75.2039 111.392 74.5346 111.488 73.8654C111.488 73.5785 111.392 73.4829 111.296 73.4829C111.105 73.4829 111.01 73.5785 111.01 73.7698C108.333 80.6537 100.971 85.1473 94.1823 85.1473C83.1872 85.1473 79.3628 78.0722 79.3628 67.9376L79.9365 51.8751C79.9365 48.1463 77.7375 46.4254 73.2438 46.4254C72.5745 46.1385 72.2877 45.3737 72.2877 44.7044C72.2877 43.7483 72.7657 42.601 74.3911 42.4098C78.6935 41.8361 84.5257 39.6371 87.8721 37.5337C89.4018 36.6732 90.836 36.0039 92.557 36.0039C93.8955 36.0039 95.7121 36.482 96.5726 37.438L95.7121 63.7307C95.7121 68.6068 96.1901 74.5346 102.787 74.5346C109.862 74.5346 111.201 67.1727 111.296 60.0019ZM157.482 36.482C158.82 36.482 160.063 36.96 161.02 37.9161L160.446 47.5727C160.446 47.8595 160.541 47.9551 160.637 47.9551C160.733 47.9551 160.828 47.8595 160.924 47.6683C163.983 41.7405 170.772 36.0039 175.648 36.0039C179.185 36.0039 179.759 40.7844 179.759 48.0507C179.759 51.7795 179.09 55.5083 176.317 55.5083C175.074 55.5083 173.736 55.0302 172.684 54.361C170.294 53.2137 167.521 51.0146 164.844 51.0146C161.976 51.0146 160.828 53.7873 160.733 56.7512L160.255 70.1366C160.255 76.3512 163.505 79.2195 170.867 80.4624C171.537 80.6537 172.206 81.2273 172.206 82.1834C172.206 83.3307 171.345 84 170.485 84H138.551C137.691 84 137.021 83.4263 137.021 82.3746C137.021 81.4185 137.595 80.6537 138.456 80.4624C143.714 79.1239 144.001 74.439 144.097 69.8498L144.67 52.3532C144.67 48.72 143.14 46.9034 138.551 46.9034C138.073 46.521 137.691 45.9473 137.691 45.1824C137.691 44.2263 138.264 43.079 139.89 42.8878C144.097 42.3141 149.451 40.1151 152.797 38.2029C154.231 37.2468 155.761 36.482 157.482 36.482Z" fill="white"/>
<path d="M224.572 20.9932H243.216C250.099 20.9932 255.358 20.5151 258.417 20.5151C263.007 20.5151 263.294 23.8615 263.294 25.4868C263.294 28.3551 262.529 36.0995 262.529 38.681C262.529 39.9239 261.477 40.4976 260.617 40.4976C259.565 40.4976 258.896 39.8283 258.609 38.681C257.461 33.2312 253.541 29.0244 248.474 27.5902C247.231 27.0166 244.65 26.7298 243.407 26.7298C242.833 26.7298 242.355 27.1122 242.259 27.8771L240.825 69.8498C240.825 76.3512 243.216 79.3151 248.474 80.4624C249.335 80.6537 249.813 81.3229 249.813 82.1834C249.813 83.3307 249.048 84 248.092 84H217.592C216.732 84 216.158 83.4263 216.158 82.3746C216.158 81.4185 216.636 80.6537 217.497 80.4624C221.799 78.6459 223.711 74.7259 223.902 69.9454L225.337 27.7815C225.337 27.0166 224.667 26.7298 224.094 26.7298C222.659 26.7298 219.982 26.921 218.739 27.399C213.385 28.8332 209.561 32.9444 207.171 38.4898C206.693 39.8283 205.832 40.4976 204.78 40.4976C203.92 40.4976 203.251 39.8283 203.251 38.8722L205.545 25.2956C205.832 23.479 206.788 20.5151 210.708 20.5151C215.202 20.5151 219.409 20.9932 224.572 20.9932ZM293.342 36.2907C305.198 36.2907 312.655 43.1746 312.655 50.919C312.655 54.361 310.743 57.4205 305.771 58.5678C299.939 60.0019 283.494 62.0098 279.957 62.0098C279.574 62.0098 279.383 62.201 279.383 62.679C279.861 64.2088 280.435 65.5473 281.486 66.9815C284.833 71.5707 290.474 73.8654 296.401 73.8654C301.564 73.8654 306.727 71.9532 310.647 68.4156C310.934 68.0332 311.412 67.8419 311.89 67.8419C312.56 67.8419 313.324 68.32 313.324 69.1805C313.324 69.3717 313.324 69.6585 313.229 69.9454C309.596 79.1239 299.365 85.1473 288.561 85.1473C275.654 85.0517 265.328 76.9249 265.328 63.1571C265.328 47.3815 278.236 36.2907 293.342 36.2907ZM287.414 43.8439C281.008 43.8439 277.662 49.2937 277.662 55.5083C277.662 56.1776 277.758 56.7512 277.853 57.038C277.949 57.4205 278.14 57.7073 278.618 57.7073C280.913 57.7073 298.027 54.6478 298.027 53.5961C298.027 51.2059 294.872 43.8439 287.414 43.8439ZM334.224 67.4595C334.224 71.4751 336.71 75.3951 341.012 75.3951C348.948 75.3951 349.235 66.6946 349.235 62.5834V60.2888C349.235 60.0019 348.948 59.8107 348.661 59.8107C348.47 59.8107 348.087 60.0019 347.609 60.0976C343.02 61.4361 334.224 64.4956 334.224 67.4595ZM332.886 47.4771C332.886 52.7356 332.216 56.0819 328.966 56.0819C325.715 56.0819 320.839 53.2137 320.839 50.0585C320.839 47.1902 324.185 44.0351 326.862 42.1229C332.312 38.2985 338.622 36.3863 345.124 36.3863C355.641 36.3863 365.393 41.8361 365.393 54.6478L364.819 71.1883C364.819 75.9688 366.923 78.359 368.93 78.359C369.6 78.359 370.078 78.4546 370.46 78.6459C370.843 78.8371 371.034 79.3151 371.034 79.7932C371.034 80.1756 370.938 80.6537 370.651 80.9405C368.739 83.0439 363.194 84.7649 358.987 84.7649C353.155 84.7649 349.139 82.0878 349.139 76.4468C349.139 76.3512 349.044 76.3512 348.852 76.3512C348.661 76.3512 348.47 76.3512 348.47 76.4468C345.697 81.9922 339.674 85.0517 333.459 85.0517C325.141 85.0517 319.405 79.2195 319.405 70.6146C319.405 68.0332 319.691 66.9815 321.89 65.3561C326.48 62.0098 336.327 58.1854 347.896 55.7951C348.661 55.6039 349.235 55.7951 349.235 54.4566C349.235 48.0507 343.594 45.1824 337.475 45.1824C336.519 45.1824 335.563 45.1824 334.798 45.3737C333.65 45.5649 332.886 46.0429 332.886 47.4771ZM415.295 36.2907C420.076 36.2907 424.187 37.9161 426.577 41.358C427.82 43.079 428.394 45.4693 428.681 47.6683C428.681 47.7639 428.776 47.8595 428.872 47.8595C428.967 47.8595 429.063 47.7639 429.063 47.6683C432.409 39.8283 439.389 36.2907 446.177 36.2907C457.172 36.2907 461.379 43.3659 461.379 53.5005L460.71 71.3795C460.71 76.638 461.092 79.6976 464.725 80.4624C465.586 80.6537 466.064 81.2273 466.064 82.1834C466.064 83.3307 465.395 84 464.343 84H439.389C438.528 84 437.859 83.4263 437.859 82.3746C437.859 81.4185 438.433 80.7493 439.293 80.4624C443.978 78.6459 444.361 74.439 444.552 69.8498L445.03 57.7073C445.03 53.0224 444.743 45.9473 438.242 45.9473C431.262 45.9473 429.732 54.0741 429.445 61.1493L429.063 71.3795C429.063 76.4468 429.445 79.602 432.983 80.4624C433.843 80.7493 434.417 81.2273 434.417 82.1834C434.417 83.3307 433.557 84 432.696 84H407.646C406.786 84 406.212 83.4263 406.212 82.3746C406.212 81.4185 406.786 80.7493 407.551 80.4624C412.236 78.9327 412.618 74.3434 412.809 69.8498L413.287 57.7073C413.287 53.0224 413.001 45.9473 406.499 45.9473C399.424 45.9473 397.894 54.2654 397.703 61.4361L397.321 72.5268C397.321 75.9688 397.607 79.9844 401.336 80.4624C402.197 80.6537 402.675 81.2273 402.675 82.1834C402.675 83.3307 401.814 84 400.954 84H376C375.139 84 374.47 83.4263 374.47 82.3746C374.47 81.4185 375.043 80.7493 375.904 80.4624C380.398 78.6459 380.971 74.2478 381.162 69.8498L381.736 52.3532C381.736 48.72 380.111 46.9034 375.522 46.9034C375.043 46.521 374.757 45.9473 374.757 45.1824C374.757 44.2263 375.33 43.079 376.764 42.8878C381.162 42.3141 386.421 40.1151 389.767 38.2029C391.202 37.2468 392.731 36.482 394.548 36.482C395.695 36.482 397.034 36.96 397.99 37.9161L397.416 47.6683C397.416 47.7639 397.512 47.8595 397.607 47.8595C397.703 47.8595 397.799 47.7639 397.894 47.6683C401.145 40.5932 407.551 36.2907 415.295 36.2907Z" fill="url(#paint1_linear_0_161)"/>
<defs>
<linearGradient id="paint0_linear_0_161" x1="447" y1="97" x2="394.855" y2="211.921" gradientUnits="userSpaceOnUse">
<stop stop-color="#CC00FF"/>
<stop offset="1" stop-color="#8000FF"/>
</linearGradient>
<linearGradient id="paint1_linear_0_161" x1="468" y1="25" x2="344.933" y2="166.289" gradientUnits="userSpaceOnUse">
<stop stop-color="#CC00FF"/>
<stop offset="1" stop-color="#8000FF"/>
</linearGradient>
</defs>
</svg>
