<svg width="625" height="137" viewBox="0 0 625 137" fill="none" xmlns="http://www.w3.org/2000/svg">
<path d="M613.163 109.051C609.223 109.672 605.084 111.095 601.385 110.791C571.356 108.37 544.145 114.429 516.472 119.065C495.69 122.545 475.942 124.078 454.741 118.091C446.067 115.646 432.351 117.288 421.652 118.7C404.458 120.963 387.682 124.357 371.017 127.703C355.276 130.855 341.604 128.555 331.719 122.082C320.866 114.977 308.185 114.746 294.535 116.838C270.385 120.525 249.008 127.448 229.15 135.807C222.964 138.41 211.956 136.537 211.031 132.29C210.679 130.648 213.365 127.849 216.073 127.095C233.267 122.289 250.659 117.629 268.403 113.456C284.254 109.733 300.81 105.997 318.268 108.917C326.876 110.365 335.242 113.419 342.023 116.777C350.63 121.048 359.327 120.622 368.925 119.15C390.632 115.804 412.163 112.057 434.135 109.319C441.818 108.358 451.461 108.759 458.55 110.548C474.401 114.539 489.701 114.38 505.685 111.704C524.728 108.504 543.639 104.939 562.991 102.457C571.444 101.374 580.889 102.518 589.871 102.822C594.428 102.98 599.118 103.187 603.411 103.941C607.175 104.598 610.478 106.058 614 107.165C613.736 107.786 613.472 108.419 613.185 109.039L613.163 109.051Z" fill="url(#paint0_linear_0_212)"/>
<path d="M39.8434 19.9417C59.8258 19.9417 69.3868 34.0919 69.3868 49.2939C69.3868 66.6949 56.9575 85.1476 33.5331 85.1476C13.1683 85.1476 3.89411 71.3798 3.89411 56.4646C3.89411 38.968 16.7058 19.9417 39.8434 19.9417ZM32.9595 28.6422C23.3029 28.6422 19.0004 37.1515 19.0004 46.9993C19.0004 60.3846 27.0317 76.5427 40.2258 76.5427C49.978 76.5427 54.2805 68.2246 54.2805 58.4724C54.2805 44.9915 45.9624 28.6422 32.9595 28.6422ZM112.131 60.0022L112.322 51.8754C112.322 48.1466 110.123 46.4256 105.63 46.4256C105.152 46.1388 104.769 45.3739 104.769 44.7046C104.769 43.7485 105.247 42.6012 106.873 42.41C111.079 41.8363 117.103 39.6373 120.449 37.5339C121.979 36.6734 123.413 36.0041 125.23 36.0041C126.473 36.0041 128.194 36.4822 129.245 37.4383L128.098 69.1807C128.098 73.1007 129.245 75.7778 131.444 76.9251C132.209 77.3076 133.165 77.69 133.93 77.8812C134.504 78.0724 134.791 78.5505 134.791 79.2198C134.791 79.7934 134.408 80.2715 134.026 80.6539C131.253 83.0441 126.473 84.6695 122.17 84.6695C116.338 84.6695 112.227 81.61 112.227 75.8734C112.227 75.2041 112.227 74.5349 112.322 73.8656C112.322 73.5788 112.227 73.4832 112.131 73.4832C111.94 73.4832 111.844 73.5788 111.844 73.77C109.167 80.6539 101.805 85.1476 95.0169 85.1476C84.0218 85.1476 80.1974 78.0724 80.1974 67.9378L80.7711 51.8754C80.7711 48.1466 78.572 46.4256 74.0784 46.4256C73.4091 46.1388 73.1223 45.3739 73.1223 44.7046C73.1223 43.7485 73.6003 42.6012 75.2257 42.41C79.5281 41.8363 85.3603 39.6373 88.7067 37.5339C90.2364 36.6734 91.6706 36.0041 93.3916 36.0041C94.7301 36.0041 96.5467 36.4822 97.4072 37.4383L96.5467 63.731C96.5467 68.6071 97.0247 74.5349 103.622 74.5349C110.697 74.5349 112.035 67.1729 112.131 60.0022ZM158.317 36.4822C159.655 36.4822 160.898 36.9602 161.854 37.9163L161.28 47.5729C161.28 47.8598 161.376 47.9554 161.472 47.9554C161.567 47.9554 161.663 47.8598 161.759 47.6685C164.818 41.7407 171.606 36.0041 176.482 36.0041C180.02 36.0041 180.594 40.7846 180.594 48.051C180.594 51.7798 179.924 55.5085 177.152 55.5085C175.909 55.5085 174.57 55.0305 173.519 54.3612C171.128 53.2139 168.356 51.0149 165.679 51.0149C162.81 51.0149 161.663 53.7876 161.567 56.7515L161.089 70.1368C161.089 76.3515 164.34 79.2198 171.702 80.4627C172.371 80.6539 173.04 81.2276 173.04 82.1837C173.04 83.331 172.18 84.0002 171.319 84.0002H139.386C138.525 84.0002 137.856 83.4266 137.856 82.3749C137.856 81.4188 138.43 80.6539 139.29 80.4627C144.549 79.1241 144.836 74.4393 144.931 69.85L145.505 52.3534C145.505 48.7202 143.975 46.9037 139.386 46.9037C138.908 46.5212 138.525 45.9476 138.525 45.1827C138.525 44.2266 139.099 43.0793 140.724 42.888C144.931 42.3144 150.285 40.1154 153.632 38.2032C155.066 37.2471 156.596 36.4822 158.317 36.4822Z" fill="white"/>
<path d="M230.187 71.7622C230.187 77.8812 233.533 79.6978 239.748 80.4627C240.799 80.5583 241.277 81.4188 241.277 82.2793C241.277 83.2354 240.704 84.0002 239.652 84.0002H207.814C206.954 84.0002 206.284 83.4266 206.284 82.3749C206.284 81.4188 206.858 80.7495 207.718 80.4627C212.69 78.8373 213.168 74.3437 213.264 69.9456L214.507 31.6061C214.507 28.2598 213.359 25.009 209.439 24.531C208.579 24.4354 208.101 23.7661 208.101 22.9056C208.101 21.7583 208.961 20.9934 209.726 20.9934H224.641C229.422 20.9934 236.401 20.5154 245.771 20.5154C260.399 20.5154 266.614 28.7378 266.614 38.8724C266.614 50.9193 257.627 63.4441 238.122 63.4441H230.474L230.187 71.7622ZM237.262 57.8032C245.771 57.8032 249.978 51.8754 249.978 44.3222C249.978 30.4588 239.461 25.7739 233.342 25.7739C232.386 25.7739 231.716 26.0607 231.716 27.0168L230.76 53.1183C230.76 54.5524 231.143 55.6041 232.099 56.369C233.342 57.3251 235.063 57.8032 237.262 57.8032ZM286.694 67.4598C286.694 71.4754 289.179 75.3954 293.482 75.3954C301.417 75.3954 301.704 66.6949 301.704 62.5837V60.289C301.704 60.0022 301.417 59.811 301.131 59.811C300.939 59.811 300.557 60.0022 300.079 60.0978C295.49 61.4363 286.694 64.4959 286.694 67.4598ZM285.355 47.4773C285.355 52.7359 284.686 56.0822 281.435 56.0822C278.184 56.0822 273.308 53.2139 273.308 50.0588C273.308 47.1905 276.655 44.0354 279.332 42.1232C284.781 38.2988 291.092 36.3866 297.593 36.3866C308.11 36.3866 317.862 41.8363 317.862 54.648L317.289 71.1885C317.289 75.969 319.392 78.3593 321.4 78.3593C322.069 78.3593 322.547 78.4549 322.93 78.6461C323.312 78.8373 323.503 79.3154 323.503 79.7934C323.503 80.1759 323.408 80.6539 323.121 80.9407C321.209 83.0441 315.663 84.7651 311.456 84.7651C305.624 84.7651 301.609 82.088 301.609 76.4471C301.609 76.3515 301.513 76.3515 301.322 76.3515C301.131 76.3515 300.939 76.3515 300.939 76.4471C298.167 81.9924 292.143 85.052 285.929 85.052C277.611 85.052 271.874 79.2198 271.874 70.6149C271.874 68.0334 272.161 66.9817 274.36 65.3563C278.949 62.01 288.797 58.1856 300.366 55.7954C301.131 55.6041 301.704 55.7954 301.704 54.4568C301.704 48.051 296.063 45.1827 289.944 45.1827C288.988 45.1827 288.032 45.1827 287.267 45.3739C286.12 45.5651 285.355 46.0432 285.355 47.4773ZM346.922 36.4822C348.26 36.4822 349.503 36.9602 350.459 37.9163L349.886 47.5729C349.886 47.8598 349.981 47.9554 350.077 47.9554C350.172 47.9554 350.268 47.8598 350.364 47.6685C353.423 41.7407 360.212 36.0041 365.088 36.0041C368.625 36.0041 369.199 40.7846 369.199 48.051C369.199 51.7798 368.53 55.5085 365.757 55.5085C364.514 55.5085 363.175 55.0305 362.124 54.3612C359.733 53.2139 356.961 51.0149 354.284 51.0149C351.415 51.0149 350.268 53.7876 350.172 56.7515L349.694 70.1368C349.694 76.3515 352.945 79.2198 360.307 80.4627C360.976 80.6539 361.646 81.2276 361.646 82.1837C361.646 83.331 360.785 84.0002 359.925 84.0002H327.991C327.131 84.0002 326.461 83.4266 326.461 82.3749C326.461 81.4188 327.035 80.6539 327.895 80.4627C333.154 79.1241 333.441 74.4393 333.536 69.85L334.11 52.3534C334.11 48.7202 332.58 46.9037 327.991 46.9037C327.513 46.5212 327.131 45.9476 327.131 45.1827C327.131 44.2266 327.704 43.0793 329.33 42.888C333.536 42.3144 338.891 40.1154 342.237 38.2032C343.671 37.2471 345.201 36.4822 346.922 36.4822ZM379.356 69.5632L380.121 46.4256C380.121 45.9476 379.93 45.8519 379.356 45.8519H373.046C372.185 45.7563 371.898 44.8002 371.803 43.5573C371.803 42.3144 372.09 41.0715 373.141 40.8802C381.937 38.49 388.439 33.2315 391.785 25.2959C392.072 24.531 393.41 24.1485 394.558 24.1485C395.896 24.1485 397.044 24.6266 397.044 25.6783L396.566 37.9163C396.566 38.2988 396.757 38.5856 397.235 38.5856H410.333C411.576 38.6812 411.959 39.7329 411.959 41.0715C411.959 42.6012 411.385 44.2266 410.142 44.3222L396.47 45.7563L395.801 64.8783C395.801 67.9378 396.279 70.328 397.809 71.9534C399.338 73.5788 401.633 74.3437 404.023 74.3437C405.935 74.3437 407.848 73.8656 409.664 72.6227C409.951 72.5271 410.429 72.3359 410.716 72.3359C411.672 72.3359 412.341 73.1007 412.341 74.1524C412.341 74.7261 412.15 75.1085 411.863 75.5866C408.326 81.2276 401.059 85.1476 394.175 85.1476C389.108 85.1476 385.092 83.6178 382.607 80.6539C380.312 77.9768 379.356 74.1524 379.356 69.5632ZM439.438 47.6685C442.784 40.4022 449.19 36.291 455.978 36.291C466.973 36.291 471.18 43.3661 471.18 53.5007L470.511 71.3798C470.511 75.969 470.798 79.6978 474.526 80.4627C475.387 80.6539 475.961 81.2276 475.961 82.1837C475.961 83.331 475.1 84.0002 474.24 84.0002H449.285C448.329 84.0002 447.756 83.4266 447.756 82.3749C447.756 81.4188 448.329 80.7495 449.19 80.4627C453.779 78.9329 454.162 74.3437 454.353 69.85L454.831 57.7076C454.831 53.0227 454.257 46.5212 447.756 46.5212C440.681 46.5212 439.533 54.2656 439.246 61.4363L438.864 72.5271C438.864 76.8295 439.533 79.7934 442.88 80.4627C443.74 80.6539 444.218 81.2276 444.218 82.1837C444.218 83.331 443.358 84.0002 442.497 84.0002H417.543C416.682 84.0002 416.013 83.4266 416.013 82.3749C416.013 81.4188 416.587 80.7495 417.447 80.4627C421.941 78.6461 422.515 74.248 422.706 69.85L423.375 52.3534C423.375 48.7202 421.654 46.9037 417.065 46.9037C416.587 46.5212 416.3 45.9476 416.3 45.1827C416.3 44.2266 416.778 43.0793 418.403 42.888C422.706 42.3144 428.06 40.1154 431.311 38.2032C432.841 37.2471 434.275 36.4822 436.091 36.4822C437.43 36.4822 438.577 36.9602 439.533 37.9163L438.96 47.5729C438.96 47.8598 439.055 47.9554 439.151 47.9554C439.246 47.9554 439.342 47.8598 439.438 47.6685ZM508.738 36.291C520.594 36.291 528.051 43.1749 528.051 50.9193C528.051 54.3612 526.139 57.4207 521.168 58.568C515.335 60.0022 498.89 62.01 495.353 62.01C494.97 62.01 494.779 62.2012 494.779 62.6793C495.257 64.209 495.831 65.5476 496.883 66.9817C500.229 71.571 505.87 73.8656 511.798 73.8656C516.961 73.8656 522.124 71.9534 526.044 68.4159C526.33 68.0334 526.809 67.8422 527.287 67.8422C527.956 67.8422 528.721 68.3202 528.721 69.1807C528.721 69.372 528.721 69.6588 528.625 69.9456C524.992 79.1241 514.762 85.1476 503.958 85.1476C491.05 85.052 480.725 76.9251 480.725 63.1573C480.725 47.3817 493.632 36.291 508.738 36.291ZM502.81 43.8441C496.405 43.8441 493.058 49.2939 493.058 55.5085C493.058 56.1778 493.154 56.7515 493.249 57.0383C493.345 57.4207 493.536 57.7076 494.014 57.7076C496.309 57.7076 513.423 54.648 513.423 53.5963C513.423 51.2061 510.268 43.8441 502.81 43.8441ZM553.827 36.4822C555.166 36.4822 556.409 36.9602 557.365 37.9163L556.791 47.5729C556.791 47.8598 556.887 47.9554 556.982 47.9554C557.078 47.9554 557.174 47.8598 557.269 47.6685C560.329 41.7407 567.117 36.0041 571.993 36.0041C575.531 36.0041 576.104 40.7846 576.104 48.051C576.104 51.7798 575.435 55.5085 572.662 55.5085C571.419 55.5085 570.081 55.0305 569.029 54.3612C566.639 53.2139 563.866 51.0149 561.189 51.0149C558.321 51.0149 557.174 53.7876 557.078 56.7515L556.6 70.1368C556.6 76.3515 559.851 79.2198 567.213 80.4627C567.882 80.6539 568.551 81.2276 568.551 82.1837C568.551 83.331 567.691 84.0002 566.83 84.0002H534.896C534.036 84.0002 533.367 83.4266 533.367 82.3749C533.367 81.4188 533.94 80.6539 534.801 80.4627C540.059 79.1241 540.346 74.4393 540.442 69.85L541.016 52.3534C541.016 48.7202 539.486 46.9037 534.896 46.9037C534.418 46.5212 534.036 45.9476 534.036 45.1827C534.036 44.2266 534.61 43.0793 536.235 42.888C540.442 42.3144 545.796 40.1154 549.142 38.2032C550.576 37.2471 552.106 36.4822 553.827 36.4822ZM605.479 36.291C617.621 36.291 619.534 40.4978 619.534 46.5212C619.534 48.6246 619.151 51.2061 619.056 53.2139C619.056 54.0744 618.482 54.5524 617.526 54.5524C617.048 54.5524 616.474 54.17 616.187 53.5963C612.267 47.6685 604.905 43.5573 598.213 43.5573C594.962 43.5573 592.954 44.9915 592.954 47.1905C592.954 50.1544 598.786 51.8754 604.045 53.5007C610.642 55.6041 616.761 57.9944 619.342 63.3485C620.107 65.0695 620.394 66.9817 620.394 68.8939C620.394 71.571 619.725 74.0568 618.195 76.1602C613.988 82.2793 604.81 85.1476 596.492 85.1476C583.967 85.052 581.576 80.3671 581.576 73.1963C581.576 71.4754 581.576 68.9895 581.863 66.9817C581.863 66.0256 582.628 65.6432 583.393 65.6432C584.062 65.6432 584.445 65.93 584.732 66.408C589.321 73.6744 598.213 77.8812 605.192 77.8812C608.347 77.8812 610.259 76.5427 610.259 74.3437C610.259 70.9973 605.001 69.372 599.455 67.651C593.145 65.6432 586.739 63.0617 584.158 57.6119C583.393 55.891 582.915 53.9788 582.915 52.0666C582.915 49.5807 583.68 47.0949 585.114 44.8959C589.034 39.2549 597.448 36.291 605.479 36.291Z" fill="url(#paint1_linear_0_212)"/>
<defs>
<linearGradient id="paint0_linear_0_212" x1="614" y1="102" x2="580.496" y2="231.943" gradientUnits="userSpaceOnUse">
<stop stop-color="#CC00FF"/>
<stop offset="1" stop-color="#8000FF"/>
</linearGradient>
<linearGradient id="paint1_linear_0_212" x1="625" y1="0.000244141" x2="476.54" y2="318.919" gradientUnits="userSpaceOnUse">
<stop stop-color="#CC00FF"/>
<stop offset="1" stop-color="#8000FF"/>
</linearGradient>
</defs>
</svg>
