<svg width="710" height="418" viewBox="0 0 710 418" fill="none" xmlns="http://www.w3.org/2000/svg">
<g opacity="0.7" filter="url(#filter0_f_0_154)">
<path d="M91.7214 110.95C91.7214 115.021 93.9475 116.229 98.0816 116.738C98.7813 116.802 99.0993 117.374 99.0993 117.947C99.0993 118.583 98.7177 119.092 98.018 119.092H76.8384C76.266 119.092 75.8208 118.71 75.8208 118.01C75.8208 117.374 76.2024 116.929 76.7748 116.738C80.0822 115.657 80.4002 112.668 80.4638 109.742L81.2906 84.2375C81.2906 82.0114 80.5274 79.8489 77.9197 79.5309C77.3473 79.4673 77.0292 79.0221 77.0292 78.4496C77.0292 77.6864 77.6017 77.1776 78.1105 77.1776H88.0325C91.2126 77.1776 95.8555 76.8596 102.089 76.8596C111.82 76.8596 115.954 82.3294 115.954 89.0712C115.954 97.0851 109.975 105.417 97.0004 105.417H91.9122L91.7214 110.95ZM96.428 101.665C102.089 101.665 104.887 97.7212 104.887 92.6966C104.887 83.4742 97.8908 80.3577 93.8203 80.3577C93.1842 80.3577 92.739 80.5485 92.739 81.1845L92.103 98.548C92.103 99.502 92.3574 100.202 92.9934 100.71C93.8203 101.346 94.9651 101.665 96.428 101.665ZM135.672 85.8275L134.845 111.523C134.845 113.94 135.354 116.42 138.216 116.738C138.852 116.802 139.17 117.311 139.17 117.883C139.17 118.646 138.597 119.092 138.025 119.092H119.898C119.326 119.092 118.944 118.71 118.944 118.01C118.944 117.374 119.262 116.929 119.835 116.738C123.206 115.721 123.46 112.668 123.587 109.678L124.414 84.8099C124.414 82.393 123.969 79.9125 120.979 79.5309C120.407 79.4673 120.089 79.0221 120.089 78.4496C120.089 77.6864 120.661 77.1776 121.234 77.1776H139.361C139.933 77.1776 140.315 77.6228 140.315 78.3224C140.315 78.9585 139.997 79.4037 139.424 79.5309C136.498 80.5485 135.735 83.029 135.672 85.8275ZM167.708 76.478C181.001 76.478 187.361 85.8911 187.361 96.0039C187.361 107.58 179.093 119.855 163.51 119.855C149.963 119.855 143.793 110.696 143.793 100.774C143.793 89.1348 152.316 76.478 167.708 76.478ZM163.128 82.2658C156.705 82.2658 153.843 87.9264 153.843 94.4774C153.843 103.382 159.185 114.131 167.962 114.131C174.45 114.131 177.312 108.597 177.312 102.11C177.312 93.1418 171.778 82.2658 163.128 82.2658ZM209.435 78.4496L223.174 100.838C225.908 105.226 226.354 108.343 226.481 108.343C226.608 108.343 226.481 106.625 226.672 101.728L227.244 85.1915C227.244 81.757 225.59 79.9125 222.856 79.5309C222.22 79.4673 221.838 78.9585 221.838 78.386C221.838 77.75 222.22 77.1776 222.919 77.1776H235.449C236.148 77.1776 236.53 77.6864 236.53 78.386C236.53 78.9585 236.212 79.4673 235.512 79.5309C233.223 80.2305 232.46 81.757 232.332 84.8735L231.187 118.583C231.187 119.282 228.961 119.6 225.972 119.6C224.128 119.6 222.474 119.092 221.011 117.82C219.675 116.675 218.594 115.148 217.131 112.795L203.838 91.2973C202.121 88.4988 201.549 86.4635 201.422 86.4635C201.294 86.4635 201.358 87.8628 201.294 90.4705L200.595 111.141C200.595 114.767 202.503 116.293 205.365 116.738C206.001 116.865 206.319 117.374 206.319 118.01C206.319 118.583 206.001 119.092 205.301 119.092H191.945C191.182 119.092 190.673 118.583 190.673 118.01C190.673 117.501 190.991 116.993 191.69 116.738C194.807 115.784 195.379 113.876 195.507 110.696L196.397 85.0643C196.397 82.4566 195.507 80.2941 192.517 79.5309C191.881 79.4037 191.563 78.8949 191.563 78.386C191.563 77.75 192.008 77.1776 192.772 77.1776H207.337C208.354 77.1776 208.927 77.6228 209.435 78.4496ZM240.901 77.1776H256.992C263.988 77.1776 269.204 76.8596 272.32 76.8596C274.61 76.8596 275.5 78.068 275.5 79.9761L274.737 87.036C274.61 88.0536 274.165 88.4352 273.529 88.4352C273.02 88.4352 272.511 88.1172 272.129 87.4176C270.539 83.8558 268.25 82.075 264.752 81.3117C263.162 80.8029 258.646 80.5485 256.293 80.5485C255.847 80.5485 255.529 80.8029 255.529 81.1845L255.084 93.5234C255.084 94.7318 255.593 95.3043 256.865 95.3043C258.073 95.3043 262.144 95.1771 263.225 94.9863C265.451 94.7954 267.614 94.4138 269.458 93.8414C269.903 93.7142 270.412 93.587 270.794 93.587C271.43 93.587 271.684 93.905 271.684 94.6046L271.048 99.8836C270.985 100.583 270.73 101.219 269.903 101.219C268.504 101.219 266.596 100.265 263.988 99.8836C261.826 99.3112 259.027 99.2476 256.611 99.2476C255.529 99.2476 254.957 100.011 254.893 100.901L254.448 112.095C254.448 114.639 255.656 115.848 258.9 115.848C260.363 115.848 263.098 115.593 264.624 115.212C267.995 114.321 271.175 112.668 273.211 108.852C273.529 108.279 274.038 107.961 274.61 107.961C275.31 107.961 275.691 108.47 275.691 109.297L275.182 116.484C275.055 118.519 273.529 119.537 271.43 119.537C270.349 119.537 261.444 119.092 256.165 119.092H239.629C238.993 119.092 238.611 118.71 238.611 118.01C238.611 117.374 238.929 116.929 239.565 116.738C242.872 115.657 243.127 112.668 243.254 109.742L244.144 84.6827C244.144 82.2658 243.572 79.9125 240.646 79.5309C240.138 79.4673 239.819 79.0221 239.819 78.4496C239.819 77.6864 240.328 77.1776 240.901 77.1776ZM280.839 77.1776H296.93C303.926 77.1776 309.142 76.8596 312.258 76.8596C314.548 76.8596 315.438 78.068 315.438 79.9761L314.675 87.036C314.548 88.0536 314.103 88.4352 313.467 88.4352C312.958 88.4352 312.449 88.1172 312.067 87.4176C310.477 83.8558 308.188 82.075 304.689 81.3117C303.099 80.8029 298.584 80.5485 296.23 80.5485C295.785 80.5485 295.467 80.8029 295.467 81.1845L295.022 93.5234C295.022 94.7318 295.531 95.3043 296.803 95.3043C298.011 95.3043 302.082 95.1771 303.163 94.9863C305.389 94.7954 307.552 94.4138 309.396 93.8414C309.841 93.7142 310.35 93.587 310.732 93.587C311.368 93.587 311.622 93.905 311.622 94.6046L310.986 99.8836C310.922 100.583 310.668 101.219 309.841 101.219C308.442 101.219 306.534 100.265 303.926 99.8836C301.764 99.3112 298.965 99.2476 296.548 99.2476C295.467 99.2476 294.895 100.011 294.831 100.901L294.386 112.095C294.386 114.639 295.594 115.848 298.838 115.848C300.301 115.848 303.036 115.593 304.562 115.212C307.933 114.321 311.113 112.668 313.149 108.852C313.467 108.279 313.975 107.961 314.548 107.961C315.247 107.961 315.629 108.47 315.629 109.297L315.12 116.484C314.993 118.519 313.467 119.537 311.368 119.537C310.286 119.537 301.382 119.092 296.103 119.092H279.566C278.93 119.092 278.549 118.71 278.549 118.01C278.549 117.374 278.867 116.929 279.503 116.738C282.81 115.657 283.065 112.668 283.192 109.742L284.082 84.6827C284.082 82.2658 283.51 79.9125 280.584 79.5309C280.075 79.4673 279.757 79.0221 279.757 78.4496C279.757 77.6864 280.266 77.1776 280.839 77.1776ZM344.691 76.8596C353.15 76.8596 360.273 80.0397 360.273 88.1808C360.273 95.3679 353.532 99.5656 347.235 100.138C346.981 100.202 346.981 100.265 346.981 100.329C346.981 100.392 346.981 100.456 347.171 100.71C350.224 103.7 353.277 106.435 356.712 109.424C359.828 112.095 363.199 114.576 366.697 116.166C367.142 116.357 367.397 116.611 367.397 117.12C367.397 117.756 366.952 118.138 366.379 118.265C363.899 119.155 361.1 119.791 358.302 119.791C354.04 119.791 350.288 118.519 347.807 116.357C344.309 113.24 342.083 109.17 339.793 104.399C338.649 102.046 337.631 100.774 335.659 100.774L335.278 110.696C335.278 114.767 336.931 116.166 340.366 116.738C341.002 116.865 341.447 117.374 341.447 117.947C341.447 118.583 341.002 119.092 340.175 119.092H320.395C319.822 119.092 319.441 118.71 319.441 118.01C319.441 117.374 319.759 116.929 320.331 116.738C323.638 115.657 324.02 112.731 324.084 109.742L324.91 84.8099C324.91 82.393 324.465 79.9125 321.476 79.5309C320.967 79.4673 320.586 79.0221 320.586 78.4496C320.649 77.6864 321.158 77.1776 321.73 77.1776H331.271C334.324 77.1776 341.002 76.8596 344.691 76.8596ZM340.048 97.912C345.072 97.912 348.507 95.1771 348.507 90.4069C348.507 84.1103 343.037 80.4849 337.44 80.4849C336.677 80.4849 336.359 80.8665 336.295 81.757L335.786 95.9403C335.85 97.2759 337.059 97.912 340.048 97.912ZM388.054 76.478C393.588 76.478 398.676 77.9408 398.676 82.5838C398.676 84.1739 397.976 88.1172 397.976 89.1348C397.976 89.7073 397.531 89.9617 396.959 89.9617C396.513 89.9617 396.132 89.7073 395.941 89.3256C393.333 85.0007 388.945 81.8206 383.984 81.757C382.584 81.757 380.931 82.1386 379.659 82.8382C378.387 83.6014 377.496 84.8099 377.496 86.3363C377.496 87.7356 378.323 88.6896 379.468 89.5165C381.821 91.1701 385.574 92.2514 388.436 93.3326C394.351 95.5587 400.329 98.548 400.329 105.608C400.329 113.94 392.952 119.855 380.994 119.855C374.443 119.855 368.337 118.201 368.337 112.986C368.337 111.904 368.974 107.198 368.974 106.307C368.974 105.862 369.419 105.544 369.991 105.544C370.436 105.544 370.882 105.735 371.072 106.053C374.38 111.014 379.341 114.512 385.447 114.512C387.037 114.512 388.754 114.067 390.026 113.177C391.107 112.413 391.87 111.396 391.87 109.996C391.87 108.597 391.044 107.58 389.899 106.753C387.418 105.035 383.602 103.954 380.486 102.746C374.889 100.52 369.037 97.5304 369.037 90.4705C369.037 81.757 377.56 76.478 388.054 76.478ZM435.795 85.8275L434.968 111.523C434.968 113.94 435.477 116.42 438.339 116.738C438.975 116.802 439.293 117.311 439.293 117.883C439.293 118.646 438.721 119.092 438.149 119.092H420.022C419.449 119.092 419.068 118.71 419.068 118.01C419.068 117.374 419.386 116.929 419.958 116.738C423.329 115.721 423.584 112.668 423.711 109.678L424.538 84.8099C424.538 82.393 424.092 79.9125 421.103 79.5309C420.531 79.4673 420.213 79.0221 420.213 78.4496C420.213 77.6864 420.785 77.1776 421.358 77.1776H439.484C440.057 77.1776 440.438 77.6228 440.438 78.3224C440.438 78.9585 440.12 79.4037 439.548 79.5309C436.622 80.5485 435.859 83.029 435.795 85.8275ZM462.044 78.4496L475.782 100.838C478.517 105.226 478.962 108.343 479.089 108.343C479.216 108.343 479.089 106.625 479.28 101.728L479.852 85.1915C479.852 81.757 478.199 79.9125 475.464 79.5309C474.828 79.4673 474.446 78.9585 474.446 78.386C474.446 77.75 474.828 77.1776 475.527 77.1776H488.057C488.757 77.1776 489.138 77.6864 489.138 78.386C489.138 78.9585 488.82 79.4673 488.121 79.5309C485.831 80.2305 485.068 81.757 484.941 84.8735L483.796 118.583C483.796 119.282 481.57 119.6 478.58 119.6C476.736 119.6 475.082 119.092 473.619 117.82C472.284 116.675 471.202 115.148 469.74 112.795L456.447 91.2973C454.729 88.4988 454.157 86.4635 454.03 86.4635C453.903 86.4635 453.966 87.8628 453.903 90.4705L453.203 111.141C453.203 114.767 455.111 116.293 457.973 116.738C458.609 116.865 458.927 117.374 458.927 118.01C458.927 118.583 458.609 119.092 457.91 119.092H444.553C443.79 119.092 443.281 118.583 443.281 118.01C443.281 117.501 443.599 116.993 444.299 116.738C447.415 115.784 447.988 113.876 448.115 110.696L449.005 85.0643C449.005 82.4566 448.115 80.2941 445.125 79.5309C444.489 79.4037 444.171 78.8949 444.171 78.386C444.171 77.75 444.617 77.1776 445.38 77.1776H459.945C460.962 77.1776 461.535 77.6228 462.044 78.4496ZM518.789 77.1776H531.191C535.771 77.1776 539.269 76.8596 541.304 76.8596C544.357 76.8596 544.548 79.0857 544.548 80.1669C544.548 82.075 544.039 87.2268 544.039 88.944C544.039 89.7709 543.339 90.1525 542.767 90.1525C542.067 90.1525 541.622 89.7073 541.431 88.944C540.668 85.3187 538.06 82.5202 534.689 81.5662C533.863 81.1845 532.145 80.9937 531.319 80.9937C530.937 80.9937 530.619 81.2481 530.555 81.757L529.601 109.678C529.601 114.003 531.191 115.975 534.689 116.738C535.262 116.865 535.58 117.311 535.58 117.883C535.58 118.646 535.071 119.092 534.435 119.092H514.146C513.573 119.092 513.192 118.71 513.192 118.01C513.192 117.374 513.51 116.865 514.082 116.738C516.944 115.53 518.216 112.922 518.344 109.742L519.298 81.6934C519.298 81.1845 518.852 80.9937 518.471 80.9937C517.517 80.9937 515.736 81.1209 514.909 81.439C511.347 82.393 508.803 85.1279 507.213 88.8168C506.895 89.7073 506.323 90.1525 505.623 90.1525C505.051 90.1525 504.606 89.7073 504.606 89.0712L506.132 80.0397C506.323 78.8313 506.959 76.8596 509.567 76.8596C512.556 76.8596 515.354 77.1776 518.789 77.1776ZM550.481 109.678L551.308 84.6827C551.308 82.3294 550.735 79.9125 547.873 79.5309C547.301 79.4673 546.983 79.0221 546.983 78.4496C546.983 77.6864 547.491 77.1776 548.127 77.1776H566.254C566.827 77.1776 567.208 77.6228 567.208 78.3224C567.208 78.9585 566.89 79.4037 566.318 79.5309C563.519 80.5485 562.756 82.7746 562.629 85.7639L562.311 94.6682C562.311 94.8591 562.311 94.9863 562.565 94.9863H575.476C577.257 94.9863 578.339 94.4138 578.402 92.951L578.72 84.8099C578.72 82.393 578.211 79.9125 575.286 79.5309C574.777 79.4673 574.395 79.0221 574.395 78.4496C574.395 77.6864 574.968 77.1776 575.54 77.1776H593.73C594.239 77.1776 594.684 77.6228 594.684 78.3224C594.684 78.9585 594.303 79.4037 593.794 79.5309C590.805 80.5485 590.105 82.8382 589.978 85.8275L589.087 111.523C589.087 114.003 589.66 116.42 592.522 116.738C593.158 116.802 593.476 117.311 593.476 117.883C593.476 118.646 592.967 119.092 592.331 119.092H574.204C573.632 119.092 573.25 118.71 573.25 118.01C573.25 117.374 573.568 116.929 574.141 116.738C577.321 115.721 577.766 112.922 577.893 109.678L578.211 100.074C578.211 99.6928 577.957 99.5656 577.512 99.5656H565.427C563.138 99.5656 562.12 100.138 562.056 101.601L561.675 111.523C561.675 113.94 562.247 116.42 565.173 116.738C565.745 116.802 566.063 117.311 566.063 117.883C566.063 118.646 565.491 119.092 564.918 119.092H546.792C546.219 119.092 545.838 118.71 545.838 118.01C545.838 117.374 546.156 116.929 546.728 116.738C549.908 115.721 550.417 112.795 550.481 109.678ZM599.285 77.1776H615.376C622.373 77.1776 627.588 76.8596 630.705 76.8596C632.994 76.8596 633.885 78.068 633.885 79.9761L633.122 87.036C632.994 88.0536 632.549 88.4352 631.913 88.4352C631.404 88.4352 630.895 88.1172 630.514 87.4176C628.924 83.8558 626.634 82.075 623.136 81.3117C621.546 80.8029 617.03 80.5485 614.677 80.5485C614.232 80.5485 613.914 80.8029 613.914 81.1845L613.468 93.5234C613.468 94.7318 613.977 95.3043 615.249 95.3043C616.458 95.3043 620.528 95.1771 621.61 94.9863C623.836 94.7954 625.998 94.4138 627.843 93.8414C628.288 93.7142 628.797 93.587 629.178 93.587C629.814 93.587 630.069 93.905 630.069 94.6046L629.433 99.8836C629.369 100.583 629.115 101.219 628.288 101.219C626.889 101.219 624.98 100.265 622.373 99.8836C620.21 99.3112 617.412 99.2476 614.995 99.2476C613.914 99.2476 613.341 100.011 613.278 100.901L612.832 112.095C612.832 114.639 614.041 115.848 617.285 115.848C618.747 115.848 621.482 115.593 623.009 115.212C626.38 114.321 629.56 112.668 631.595 108.852C631.913 108.279 632.422 107.961 632.994 107.961C633.694 107.961 634.076 108.47 634.076 109.297L633.567 116.484C633.44 118.519 631.913 119.537 629.814 119.537C628.733 119.537 619.829 119.092 614.55 119.092H598.013C597.377 119.092 596.995 118.71 596.995 118.01C596.995 117.374 597.313 116.929 597.949 116.738C601.257 115.657 601.511 112.668 601.638 109.742L602.529 84.6827C602.529 82.2658 601.956 79.9125 599.031 79.5309C598.522 79.4673 598.204 79.0221 598.204 78.4496C598.204 77.6864 598.713 77.1776 599.285 77.1776ZM180.603 258.95C180.603 263.021 182.829 264.229 186.963 264.738C187.663 264.802 187.981 265.374 187.981 265.947C187.981 266.583 187.599 267.092 186.9 267.092H165.72C165.148 267.092 164.703 266.71 164.703 266.01C164.703 265.374 165.084 264.929 165.657 264.738C168.964 263.657 169.282 260.668 169.346 257.742L170.172 232.237C170.172 230.011 169.409 227.849 166.801 227.531C166.229 227.467 165.911 227.022 165.911 226.45C165.911 225.686 166.483 225.178 166.992 225.178H176.914C180.094 225.178 184.737 224.86 190.97 224.86C200.702 224.86 204.836 230.329 204.836 237.071C204.836 245.085 198.857 253.417 185.882 253.417H180.794L180.603 258.95ZM185.31 249.665C190.97 249.665 193.769 245.721 193.769 240.697C193.769 231.474 186.773 228.358 182.702 228.358C182.066 228.358 181.621 228.549 181.621 229.185L180.985 246.548C180.985 247.502 181.239 248.202 181.875 248.71C182.702 249.346 183.847 249.665 185.31 249.665ZM223.663 234.527L222.836 258.314C222.836 262.321 225.253 263.275 228.878 263.275C232.567 263.275 235.62 262.258 237.719 260.095C239.182 258.76 240.263 256.979 240.836 255.007C241.09 254.307 241.535 253.862 242.362 253.862C243.253 253.862 243.698 254.498 243.698 255.516L242.935 264.42C242.807 266.392 241.217 267.537 239.055 267.537C236.829 267.537 231.295 267.092 224.871 267.092H207.826C207.254 267.092 206.872 266.71 206.872 266.01C206.872 265.374 207.19 264.929 207.762 264.738C210.815 263.721 211.324 260.986 211.451 258.124L212.342 232.81C212.342 230.393 211.897 227.912 208.971 227.531C208.335 227.467 208.017 227.022 208.017 226.45C208.017 225.686 208.589 225.178 209.162 225.178H227.416C227.988 225.178 228.37 225.623 228.37 226.322C228.37 226.958 228.052 227.404 227.479 227.531C224.172 228.549 223.727 231.665 223.663 234.527ZM267.403 224.796C270.074 224.796 272.364 225.178 272.682 226.068L284.194 258.442C285.211 261.304 286.483 263.339 289.536 264.611C290.045 264.865 290.745 265.247 290.745 265.947C290.745 266.71 290.172 267.092 289.536 267.092H269.883C269.247 267.092 268.802 266.583 268.802 265.947C268.802 265.438 269.183 264.865 269.819 264.738C271.409 264.547 272.872 263.784 272.872 261.876C272.872 261.367 272.745 260.795 272.554 260.222L270.773 255.134C270.646 254.625 270.455 254.498 269.947 254.498H258.753C256.59 254.498 254.809 255.134 253.982 257.17L252.52 260.731C252.329 261.24 252.202 261.813 252.202 262.258C252.202 264.293 254.046 264.738 255.7 264.738C256.399 264.738 256.717 265.311 256.717 265.883C256.717 266.519 256.336 267.092 255.7 267.092H242.916C242.089 267.092 241.707 266.583 241.707 266.01C241.707 265.501 241.962 264.993 242.661 264.738C245.841 263.657 246.986 261.495 248.067 258.823L261.17 226.259C261.615 225.178 264.286 224.796 267.403 224.796ZM261.551 237.644L256.781 249.792C256.654 249.983 256.654 250.046 256.654 250.173C256.654 250.301 256.781 250.301 256.908 250.301H267.911C268.611 250.301 268.802 250.11 268.802 249.665C268.802 249.41 268.738 249.156 268.675 248.838L264.986 238.152C264.35 236.244 263.841 234.654 263.459 232.746C263.459 232.619 263.396 232.555 263.332 232.555C263.268 232.555 263.205 232.619 263.205 232.746C262.76 234.336 262.187 235.99 261.551 237.644ZM309.684 226.45L323.422 248.838C326.157 253.226 326.602 256.343 326.729 256.343C326.856 256.343 326.729 254.625 326.92 249.728L327.492 233.191C327.492 229.757 325.839 227.912 323.104 227.531C322.468 227.467 322.086 226.958 322.086 226.386C322.086 225.75 322.468 225.178 323.167 225.178H335.697C336.397 225.178 336.778 225.686 336.778 226.386C336.778 226.958 336.46 227.467 335.761 227.531C333.471 228.231 332.708 229.757 332.581 232.873L331.436 266.583C331.436 267.282 329.21 267.6 326.22 267.6C324.376 267.6 322.722 267.092 321.259 265.82C319.924 264.675 318.842 263.148 317.38 260.795L304.087 239.297C302.369 236.499 301.797 234.464 301.67 234.464C301.543 234.464 301.606 235.863 301.543 238.47L300.843 259.141C300.843 262.767 302.751 264.293 305.613 264.738C306.249 264.865 306.567 265.374 306.567 266.01C306.567 266.583 306.249 267.092 305.55 267.092H292.193C291.43 267.092 290.921 266.583 290.921 266.01C290.921 265.501 291.239 264.993 291.939 264.738C295.055 263.784 295.628 261.876 295.755 258.696L296.645 233.064C296.645 230.457 295.755 228.294 292.765 227.531C292.129 227.404 291.811 226.895 291.811 226.386C291.811 225.75 292.257 225.178 293.02 225.178H307.585C308.602 225.178 309.175 225.623 309.684 226.45ZM341.149 225.178H357.24C364.237 225.178 369.452 224.86 372.569 224.86C374.858 224.86 375.749 226.068 375.749 227.976L374.985 235.036C374.858 236.054 374.413 236.435 373.777 236.435C373.268 236.435 372.759 236.117 372.378 235.418C370.788 231.856 368.498 230.075 365 229.312C363.41 228.803 358.894 228.549 356.541 228.549C356.096 228.549 355.778 228.803 355.778 229.185L355.332 241.523C355.332 242.732 355.841 243.304 357.113 243.304C358.322 243.304 362.392 243.177 363.473 242.986C365.7 242.795 367.862 242.414 369.706 241.841C370.152 241.714 370.66 241.587 371.042 241.587C371.678 241.587 371.933 241.905 371.933 242.605L371.297 247.884C371.233 248.583 370.979 249.219 370.152 249.219C368.752 249.219 366.844 248.265 364.237 247.884C362.074 247.311 359.276 247.248 356.859 247.248C355.778 247.248 355.205 248.011 355.142 248.901L354.696 260.095C354.696 262.639 355.905 263.848 359.148 263.848C360.611 263.848 363.346 263.593 364.873 263.212C368.244 262.321 371.424 260.668 373.459 256.852C373.777 256.279 374.286 255.961 374.858 255.961C375.558 255.961 375.939 256.47 375.939 257.297L375.431 264.484C375.303 266.519 373.777 267.537 371.678 267.537C370.597 267.537 361.693 267.092 356.414 267.092H339.877C339.241 267.092 338.859 266.71 338.859 266.01C338.859 265.374 339.177 264.929 339.813 264.738C343.121 263.657 343.375 260.668 343.502 257.742L344.393 232.683C344.393 230.266 343.82 227.912 340.895 227.531C340.386 227.467 340.068 227.022 340.068 226.45C340.068 225.686 340.577 225.178 341.149 225.178ZM391.708 225.178H404.111C408.69 225.178 412.188 224.86 414.224 224.86C417.277 224.86 417.467 227.086 417.467 228.167C417.467 230.075 416.959 235.227 416.959 236.944C416.959 237.771 416.259 238.152 415.686 238.152C414.987 238.152 414.542 237.707 414.351 236.944C413.588 233.319 410.98 230.52 407.609 229.566C406.782 229.185 405.065 228.994 404.238 228.994C403.856 228.994 403.538 229.248 403.475 229.757L402.521 257.678C402.521 262.003 404.111 263.975 407.609 264.738C408.181 264.865 408.499 265.311 408.499 265.883C408.499 266.646 407.991 267.092 407.355 267.092H387.065C386.493 267.092 386.111 266.71 386.111 266.01C386.111 265.374 386.429 264.865 387.002 264.738C389.864 263.53 391.136 260.922 391.263 257.742L392.217 229.693C392.217 229.185 391.772 228.994 391.39 228.994C390.436 228.994 388.655 229.121 387.829 229.439C384.267 230.393 381.723 233.128 380.133 236.817C379.815 237.707 379.242 238.152 378.543 238.152C377.97 238.152 377.525 237.707 377.525 237.071L379.052 228.04C379.242 226.831 379.878 224.86 382.486 224.86C385.475 224.86 388.274 225.178 391.708 225.178ZM438.52 224.796C441.192 224.796 443.481 225.178 443.799 226.068L455.311 258.442C456.329 261.304 457.601 263.339 460.654 264.611C461.163 264.865 461.862 265.247 461.862 265.947C461.862 266.71 461.29 267.092 460.654 267.092H441.001C440.365 267.092 439.919 266.583 439.919 265.947C439.919 265.438 440.301 264.865 440.937 264.738C442.527 264.547 443.99 263.784 443.99 261.876C443.99 261.367 443.863 260.795 443.672 260.222L441.891 255.134C441.764 254.625 441.573 254.498 441.064 254.498H429.87C427.708 254.498 425.927 255.134 425.1 257.17L423.637 260.731C423.446 261.24 423.319 261.813 423.319 262.258C423.319 264.293 425.164 264.738 426.817 264.738C427.517 264.738 427.835 265.311 427.835 265.883C427.835 266.519 427.453 267.092 426.817 267.092H414.033C413.206 267.092 412.825 266.583 412.825 266.01C412.825 265.501 413.079 264.993 413.779 264.738C416.959 263.657 418.104 261.495 419.185 258.823L432.287 226.259C432.732 225.178 435.404 224.796 438.52 224.796ZM432.669 237.644L427.899 249.792C427.771 249.983 427.771 250.046 427.771 250.173C427.771 250.301 427.899 250.301 428.026 250.301H439.029C439.729 250.301 439.919 250.11 439.919 249.665C439.919 249.41 439.856 249.156 439.792 248.838L436.103 238.152C435.467 236.244 434.958 234.654 434.577 232.746C434.577 232.619 434.513 232.555 434.45 232.555C434.386 232.555 434.322 232.619 434.322 232.746C433.877 234.336 433.305 235.99 432.669 237.644ZM487.734 224.86C496.193 224.86 503.317 228.04 503.317 236.181C503.317 243.368 496.575 247.566 490.278 248.138C490.024 248.202 490.024 248.265 490.024 248.329C490.024 248.392 490.024 248.456 490.215 248.71C493.267 251.7 496.32 254.435 499.755 257.424C502.871 260.095 506.242 262.576 509.74 264.166C510.186 264.357 510.44 264.611 510.44 265.12C510.44 265.756 509.995 266.138 509.422 266.265C506.942 267.155 504.143 267.791 501.345 267.791C497.084 267.791 493.331 266.519 490.851 264.357C487.352 261.24 485.126 257.17 482.837 252.399C481.692 250.046 480.674 248.774 478.703 248.774L478.321 258.696C478.321 262.767 479.975 264.166 483.409 264.738C484.045 264.865 484.49 265.374 484.49 265.947C484.49 266.583 484.045 267.092 483.218 267.092H463.438C462.866 267.092 462.484 266.71 462.484 266.01C462.484 265.374 462.802 264.929 463.374 264.738C466.682 263.657 467.063 260.731 467.127 257.742L467.954 232.81C467.954 230.393 467.508 227.912 464.519 227.531C464.01 227.467 463.629 227.022 463.629 226.45C463.692 225.686 464.201 225.178 464.774 225.178H474.314C477.367 225.178 484.045 224.86 487.734 224.86ZM483.091 245.912C488.116 245.912 491.55 243.177 491.55 238.407C491.55 232.11 486.08 228.485 480.483 228.485C479.72 228.485 479.402 228.867 479.339 229.757L478.83 243.94C478.893 245.276 480.102 245.912 483.091 245.912ZM533.832 251.636L533.578 258.696C533.578 261.94 534.405 264.102 537.966 264.738C538.603 264.865 538.984 265.374 538.984 265.947C538.984 266.519 538.539 267.092 537.712 267.092H518.059C517.296 267.092 516.914 266.583 516.914 266.01C516.914 265.501 517.232 264.993 517.868 264.738C521.048 263.848 522.193 261.749 522.32 258.696L522.575 252.018C522.575 250.237 522.193 249.028 520.73 246.23L513.607 233.001C511.953 229.948 510.363 228.358 507.119 227.531C506.483 227.404 506.165 226.895 506.165 226.386C506.165 225.686 506.611 225.178 507.374 225.178H527.154C527.917 225.178 528.426 225.75 528.426 226.386C528.426 226.958 527.981 227.531 527.218 227.531C525.882 227.531 524.546 228.167 524.546 229.757C524.546 230.457 524.737 231.156 525.119 231.919L531.415 244.258H531.67L539.938 231.792C540.32 231.283 540.447 230.647 540.511 230.075C540.511 227.849 538.03 227.531 536.186 227.531C535.359 227.531 534.977 226.958 534.977 226.386C534.977 225.75 535.422 225.178 536.249 225.178H550.687C551.45 225.178 551.959 225.686 551.959 226.386C551.959 226.895 551.641 227.404 551.005 227.531C548.652 228.167 547.062 229.757 544.836 233.001L536.058 245.785C534.532 247.947 533.896 249.219 533.832 251.636Z" fill="white"/>
<path d="M198.243 184.95C198.243 189.021 200.469 190.229 204.603 190.738C205.303 190.802 205.621 191.374 205.621 191.947C205.621 192.583 205.239 193.092 204.54 193.092H183.36C182.788 193.092 182.342 192.71 182.342 192.01C182.342 191.374 182.724 190.929 183.296 190.738C186.604 189.657 186.922 186.668 186.985 183.742L187.812 158.237C187.812 156.011 187.049 153.849 184.441 153.531C183.869 153.467 183.551 153.022 183.551 152.45C183.551 151.686 184.123 151.178 184.632 151.178H194.554C197.734 151.178 202.377 150.86 208.61 150.86C218.341 150.86 222.475 156.329 222.475 163.071C222.475 171.085 216.497 179.417 203.522 179.417H198.434L198.243 184.95ZM202.949 175.665C208.61 175.665 211.409 171.721 211.409 166.697C211.409 157.474 204.412 154.358 200.342 154.358C199.706 154.358 199.261 154.549 199.261 155.185L198.625 172.548C198.625 173.502 198.879 174.202 199.515 174.71C200.342 175.346 201.487 175.665 202.949 175.665ZM245.229 150.796C247.9 150.796 250.19 151.178 250.508 152.068L262.02 184.442C263.037 187.304 264.309 189.339 267.362 190.611C267.871 190.865 268.571 191.247 268.571 191.947C268.571 192.71 267.998 193.092 267.362 193.092H247.709C247.073 193.092 246.628 192.583 246.628 191.947C246.628 191.438 247.01 190.865 247.646 190.738C249.236 190.547 250.698 189.784 250.698 187.876C250.698 187.367 250.571 186.795 250.38 186.222L248.6 181.134C248.472 180.625 248.282 180.498 247.773 180.498H236.579C234.416 180.498 232.635 181.134 231.809 183.17L230.346 186.731C230.155 187.24 230.028 187.813 230.028 188.258C230.028 190.293 231.872 190.738 233.526 190.738C234.225 190.738 234.543 191.311 234.543 191.883C234.543 192.519 234.162 193.092 233.526 193.092H220.742C219.915 193.092 219.533 192.583 219.533 192.01C219.533 191.501 219.788 190.993 220.487 190.738C223.667 189.657 224.812 187.495 225.894 184.823L238.996 152.259C239.441 151.178 242.112 150.796 245.229 150.796ZM239.377 163.644L234.607 175.792C234.48 175.983 234.48 176.046 234.48 176.173C234.48 176.301 234.607 176.301 234.734 176.301H245.737C246.437 176.301 246.628 176.11 246.628 175.665C246.628 175.41 246.564 175.156 246.501 174.838L242.812 164.152C242.176 162.244 241.667 160.654 241.285 158.746C241.285 158.619 241.222 158.555 241.158 158.555C241.095 158.555 241.031 158.619 241.031 158.746C240.586 160.336 240.013 161.99 239.377 163.644ZM294.442 150.86C302.902 150.86 310.025 154.04 310.025 162.181C310.025 169.368 303.283 173.566 296.987 174.138C296.732 174.202 296.732 174.265 296.732 174.329C296.732 174.392 296.732 174.456 296.923 174.71C299.976 177.7 303.029 180.435 306.463 183.424C309.58 186.095 312.951 188.576 316.449 190.166C316.894 190.357 317.149 190.611 317.149 191.12C317.149 191.756 316.703 192.138 316.131 192.265C313.65 193.155 310.852 193.791 308.053 193.791C303.792 193.791 300.039 192.519 297.559 190.357C294.061 187.24 291.835 183.17 289.545 178.399C288.4 176.046 287.383 174.774 285.411 174.774L285.029 184.696C285.029 188.767 286.683 190.166 290.118 190.738C290.754 190.865 291.199 191.374 291.199 191.947C291.199 192.583 290.754 193.092 289.927 193.092H270.146C269.574 193.092 269.192 192.71 269.192 192.01C269.192 191.374 269.51 190.929 270.083 190.738C273.39 189.657 273.772 186.731 273.835 183.742L274.662 158.81C274.662 156.393 274.217 153.912 271.228 153.531C270.719 153.467 270.337 153.022 270.337 152.45C270.401 151.686 270.91 151.178 271.482 151.178H281.022C284.075 151.178 290.754 150.86 294.442 150.86ZM289.8 171.912C294.824 171.912 298.259 169.177 298.259 164.407C298.259 158.11 292.789 154.485 287.192 154.485C286.429 154.485 286.111 154.867 286.047 155.757L285.538 169.94C285.602 171.276 286.81 171.912 289.8 171.912ZM339.142 150.796C341.813 150.796 344.103 151.178 344.421 152.068L355.933 184.442C356.95 187.304 358.222 189.339 361.275 190.611C361.784 190.865 362.484 191.247 362.484 191.947C362.484 192.71 361.911 193.092 361.275 193.092H341.622C340.986 193.092 340.541 192.583 340.541 191.947C340.541 191.438 340.922 190.865 341.558 190.738C343.148 190.547 344.611 189.784 344.611 187.876C344.611 187.367 344.484 186.795 344.293 186.222L342.512 181.134C342.385 180.625 342.194 180.498 341.686 180.498H330.492C328.329 180.498 326.548 181.134 325.721 183.17L324.259 186.731C324.068 187.24 323.941 187.813 323.941 188.258C323.941 190.293 325.785 190.738 327.439 190.738C328.138 190.738 328.456 191.311 328.456 191.883C328.456 192.519 328.075 193.092 327.439 193.092H314.655C313.828 193.092 313.446 192.583 313.446 192.01C313.446 191.501 313.701 190.993 314.4 190.738C317.58 189.657 318.725 187.495 319.806 184.823L332.908 152.259C333.354 151.178 336.025 150.796 339.142 150.796ZM333.29 163.644L328.52 175.792C328.393 175.983 328.393 176.046 328.393 176.173C328.393 176.301 328.52 176.301 328.647 176.301H339.65C340.35 176.301 340.541 176.11 340.541 175.665C340.541 175.41 340.477 175.156 340.414 174.838L336.725 164.152C336.089 162.244 335.58 160.654 335.198 158.746C335.198 158.619 335.135 158.555 335.071 158.555C335.007 158.555 334.944 158.619 334.944 158.746C334.499 160.336 333.926 161.99 333.29 163.644ZM378.942 160.527L378.115 184.314C378.115 188.321 380.532 189.275 384.158 189.275C387.847 189.275 390.899 188.258 392.998 186.095C394.461 184.76 395.542 182.979 396.115 181.007C396.369 180.307 396.814 179.862 397.641 179.862C398.532 179.862 398.977 180.498 398.977 181.516L398.214 190.42C398.087 192.392 396.496 193.537 394.334 193.537C392.108 193.537 386.574 193.092 380.151 193.092H363.105C362.533 193.092 362.151 192.71 362.151 192.01C362.151 191.374 362.469 190.929 363.042 190.738C366.095 189.721 366.603 186.986 366.731 184.124L367.621 158.81C367.621 156.393 367.176 153.912 364.25 153.531C363.614 153.467 363.296 153.022 363.296 152.45C363.296 151.686 363.868 151.178 364.441 151.178H382.695C383.267 151.178 383.649 151.623 383.649 152.322C383.649 152.958 383.331 153.404 382.758 153.531C379.451 154.549 379.006 157.665 378.942 160.527ZM416.83 160.527L416.003 184.314C416.003 188.321 418.42 189.275 422.046 189.275C425.735 189.275 428.788 188.258 430.886 186.095C432.349 184.76 433.431 182.979 434.003 181.007C434.257 180.307 434.703 179.862 435.529 179.862C436.42 179.862 436.865 180.498 436.865 181.516L436.102 190.42C435.975 192.392 434.385 193.537 432.222 193.537C429.996 193.537 424.463 193.092 418.039 193.092H400.993C400.421 193.092 400.039 192.71 400.039 192.01C400.039 191.374 400.357 190.929 400.93 190.738C403.983 189.721 404.491 186.986 404.619 184.124L405.509 158.81C405.509 156.393 405.064 153.912 402.138 153.531C401.502 153.467 401.184 153.022 401.184 152.45C401.184 151.686 401.757 151.178 402.329 151.178H420.583C421.155 151.178 421.537 151.623 421.537 152.322C421.537 152.958 421.219 153.404 420.646 153.531C417.339 154.549 416.894 157.665 416.83 160.527ZM440.217 151.178H456.309C463.305 151.178 468.52 150.86 471.637 150.86C473.926 150.86 474.817 152.068 474.817 153.976L474.054 161.036C473.926 162.054 473.481 162.435 472.845 162.435C472.336 162.435 471.827 162.117 471.446 161.418C469.856 157.856 467.566 156.075 464.068 155.312C462.478 154.803 457.962 154.549 455.609 154.549C455.164 154.549 454.846 154.803 454.846 155.185L454.4 167.523C454.4 168.732 454.909 169.304 456.181 169.304C457.39 169.304 461.46 169.177 462.542 168.986C464.768 168.795 466.93 168.414 468.775 167.841C469.22 167.714 469.729 167.587 470.11 167.587C470.746 167.587 471.001 167.905 471.001 168.605L470.365 173.884C470.301 174.583 470.047 175.219 469.22 175.219C467.821 175.219 465.912 174.265 463.305 173.884C461.142 173.311 458.344 173.248 455.927 173.248C454.846 173.248 454.273 174.011 454.21 174.901L453.764 186.095C453.764 188.639 454.973 189.848 458.217 189.848C459.679 189.848 462.414 189.593 463.941 189.212C467.312 188.321 470.492 186.668 472.527 182.852C472.845 182.279 473.354 181.961 473.926 181.961C474.626 181.961 475.008 182.47 475.008 183.297L474.499 190.484C474.372 192.519 472.845 193.537 470.746 193.537C469.665 193.537 460.761 193.092 455.482 193.092H438.945C438.309 193.092 437.927 192.71 437.927 192.01C437.927 191.374 438.245 190.929 438.881 190.738C442.189 189.657 442.443 186.668 442.57 183.742L443.461 158.683C443.461 156.266 442.888 153.912 439.963 153.531C439.454 153.467 439.136 153.022 439.136 152.45C439.136 151.686 439.645 151.178 440.217 151.178ZM494.656 160.527L493.829 184.314C493.829 188.321 496.246 189.275 499.872 189.275C503.561 189.275 506.613 188.258 508.712 186.095C510.175 184.76 511.256 182.979 511.829 181.007C512.083 180.307 512.529 179.862 513.355 179.862C514.246 179.862 514.691 180.498 514.691 181.516L513.928 190.42C513.801 192.392 512.211 193.537 510.048 193.537C507.822 193.537 502.289 193.092 495.865 193.092H478.819C478.247 193.092 477.865 192.71 477.865 192.01C477.865 191.374 478.183 190.929 478.756 190.738C481.809 189.721 482.317 186.986 482.445 184.124L483.335 158.81C483.335 156.393 482.89 153.912 479.964 153.531C479.328 153.467 479.01 153.022 479.01 152.45C479.01 151.686 479.582 151.178 480.155 151.178H498.409C498.981 151.178 499.363 151.623 499.363 152.322C499.363 152.958 499.045 153.404 498.472 153.531C495.165 154.549 494.72 157.665 494.656 160.527Z" fill="url(#paint0_linear_0_154)"/>
<path d="M249.856 298.478C255.389 298.478 260.477 299.941 260.477 304.584C260.477 306.174 259.778 310.117 259.778 311.135C259.778 311.707 259.332 311.962 258.76 311.962C258.315 311.962 257.933 311.707 257.742 311.326C255.135 307.001 250.746 303.821 245.785 303.757C244.386 303.757 242.732 304.139 241.46 304.838C240.188 305.601 239.298 306.81 239.298 308.336C239.298 309.736 240.125 310.69 241.269 311.516C243.623 313.17 247.375 314.251 250.237 315.333C256.152 317.559 262.131 320.548 262.131 327.608C262.131 335.94 254.753 341.855 242.796 341.855C236.245 341.855 230.139 340.201 230.139 334.986C230.139 333.904 230.775 329.198 230.775 328.307C230.775 327.862 231.22 327.544 231.793 327.544C232.238 327.544 232.683 327.735 232.874 328.053C236.181 333.014 241.142 336.512 247.248 336.512C248.838 336.512 250.555 336.067 251.827 335.177C252.909 334.413 253.672 333.396 253.672 331.996C253.672 330.597 252.845 329.58 251.7 328.753C249.22 327.035 245.404 325.954 242.287 324.746C236.69 322.52 230.839 319.53 230.839 312.47C230.839 303.757 239.361 298.478 249.856 298.478ZM289.299 325.636L289.044 332.696C289.044 335.94 289.871 338.102 293.433 338.738C294.069 338.865 294.45 339.374 294.45 339.947C294.45 340.519 294.005 341.092 293.178 341.092H273.525C272.762 341.092 272.38 340.583 272.38 340.01C272.38 339.501 272.698 338.993 273.334 338.738C276.515 337.848 277.659 335.749 277.787 332.696L278.041 326.018C278.041 324.237 277.659 323.028 276.197 320.23L269.073 307.001C267.419 303.948 265.829 302.358 262.586 301.531C261.95 301.404 261.632 300.895 261.632 300.386C261.632 299.686 262.077 299.178 262.84 299.178H282.62C283.384 299.178 283.892 299.75 283.892 300.386C283.892 300.958 283.447 301.531 282.684 301.531C281.348 301.531 280.013 302.167 280.013 303.757C280.013 304.457 280.204 305.156 280.585 305.919L286.882 318.258H287.136L295.404 305.792C295.786 305.283 295.913 304.647 295.977 304.075C295.977 301.849 293.496 301.531 291.652 301.531C290.825 301.531 290.443 300.958 290.443 300.386C290.443 299.75 290.889 299.178 291.716 299.178H306.153C306.916 299.178 307.425 299.686 307.425 300.386C307.425 300.895 307.107 301.404 306.471 301.531C304.118 302.167 302.528 303.757 300.302 307.001L291.525 319.785C289.998 321.947 289.362 323.219 289.299 325.636ZM324.825 298.478C330.358 298.478 335.446 299.941 335.446 304.584C335.446 306.174 334.746 310.117 334.746 311.135C334.746 311.707 334.301 311.962 333.729 311.962C333.284 311.962 332.902 311.707 332.711 311.326C330.104 307.001 325.715 303.821 320.754 303.757C319.355 303.757 317.701 304.139 316.429 304.838C315.157 305.601 314.267 306.81 314.267 308.336C314.267 309.736 315.093 310.69 316.238 311.516C318.591 313.17 322.344 314.251 325.206 315.333C331.121 317.559 337.1 320.548 337.1 327.608C337.1 335.94 329.722 341.855 317.765 341.855C311.214 341.855 305.108 340.201 305.108 334.986C305.108 333.904 305.744 329.198 305.744 328.307C305.744 327.862 306.189 327.544 306.761 327.544C307.207 327.544 307.652 327.735 307.843 328.053C311.15 333.014 316.111 336.512 322.217 336.512C323.807 336.512 325.524 336.067 326.796 335.177C327.877 334.413 328.641 333.396 328.641 331.996C328.641 330.597 327.814 329.58 326.669 328.753C324.189 327.035 320.372 325.954 317.256 324.746C311.659 322.52 305.807 319.53 305.807 312.47C305.807 303.757 314.33 298.478 324.825 298.478ZM353.758 299.178H366.161C370.74 299.178 374.238 298.86 376.273 298.86C379.326 298.86 379.517 301.086 379.517 302.167C379.517 304.075 379.008 309.227 379.008 310.944C379.008 311.771 378.309 312.152 377.736 312.152C377.037 312.152 376.591 311.707 376.401 310.944C375.637 307.319 373.03 304.52 369.659 303.566C368.832 303.185 367.115 302.994 366.288 302.994C365.906 302.994 365.588 303.248 365.525 303.757L364.571 331.678C364.571 336.003 366.161 337.975 369.659 338.738C370.231 338.865 370.549 339.311 370.549 339.883C370.549 340.646 370.04 341.092 369.404 341.092H349.115C348.543 341.092 348.161 340.71 348.161 340.01C348.161 339.374 348.479 338.865 349.052 338.738C351.914 337.53 353.186 334.922 353.313 331.742L354.267 303.693C354.267 303.185 353.822 302.994 353.44 302.994C352.486 302.994 350.705 303.121 349.878 303.439C346.317 304.393 343.773 307.128 342.183 310.817C341.864 311.707 341.292 312.152 340.592 312.152C340.02 312.152 339.575 311.707 339.575 311.071L341.101 302.04C341.292 300.831 341.928 298.86 344.536 298.86C347.525 298.86 350.324 299.178 353.758 299.178ZM382.143 299.178H398.234C405.23 299.178 410.446 298.86 413.562 298.86C415.852 298.86 416.742 300.068 416.742 301.976L415.979 309.036C415.852 310.054 415.407 310.435 414.771 310.435C414.262 310.435 413.753 310.117 413.371 309.418C411.781 305.856 409.492 304.075 405.994 303.312C404.403 302.803 399.888 302.549 397.534 302.549C397.089 302.549 396.771 302.803 396.771 303.185L396.326 315.523C396.326 316.732 396.835 317.304 398.107 317.304C399.315 317.304 403.386 317.177 404.467 316.986C406.693 316.795 408.856 316.414 410.7 315.841C411.145 315.714 411.654 315.587 412.036 315.587C412.672 315.587 412.926 315.905 412.926 316.605L412.29 321.884C412.227 322.583 411.972 323.219 411.145 323.219C409.746 323.219 407.838 322.265 405.23 321.884C403.068 321.311 400.269 321.248 397.852 321.248C396.771 321.248 396.199 322.011 396.135 322.901L395.69 334.095C395.69 336.639 396.898 337.848 400.142 337.848C401.605 337.848 404.34 337.593 405.866 337.212C409.237 336.321 412.417 334.668 414.453 330.852C414.771 330.279 415.28 329.961 415.852 329.961C416.552 329.961 416.933 330.47 416.933 331.297L416.424 338.484C416.297 340.519 414.771 341.537 412.672 341.537C411.591 341.537 402.686 341.092 397.407 341.092H380.871C380.235 341.092 379.853 340.71 379.853 340.01C379.853 339.374 380.171 338.929 380.807 338.738C384.114 337.657 384.369 334.668 384.496 331.742L385.386 306.683C385.386 304.266 384.814 301.912 381.888 301.531C381.379 301.467 381.061 301.022 381.061 300.45C381.061 299.686 381.57 299.178 382.143 299.178ZM450.511 332.632L459.733 299.941C459.988 299.114 463.676 298.86 467.365 298.86C470.736 298.86 473.789 298.987 473.916 299.941L478.114 333.268C478.496 336.131 480.022 338.102 482.757 338.738C483.457 338.929 483.711 339.438 483.711 339.947C483.711 340.583 483.266 341.092 482.503 341.092H462.532C461.768 341.092 461.387 340.583 461.387 340.01C461.387 339.501 461.768 338.929 462.468 338.738C464.885 338.293 465.775 336.894 465.775 334.286C465.775 333.459 465.585 332.442 465.521 331.551L463.422 305.919C463.422 305.792 463.422 305.729 463.358 305.729C463.295 305.729 463.231 305.792 463.231 305.919L452.928 340.583C452.737 341.092 449.175 341.537 446.885 341.537C444.532 341.537 441.098 341.155 440.907 340.519L432.448 305.919C432.384 305.792 432.384 305.729 432.32 305.729C432.257 305.729 432.193 305.792 432.193 305.919C431.939 308.146 431.684 310.308 431.366 312.534L428.822 332.378C428.695 333.205 428.632 334.159 428.632 335.049C428.632 337.784 430.094 338.547 432.193 338.738C432.957 338.865 433.275 339.374 433.275 339.947C433.275 340.583 432.893 341.092 432.13 341.092H419.282C418.519 341.092 418.074 340.646 418.074 340.01C418.074 339.438 418.455 338.865 419.218 338.738C421.699 338.166 423.162 336.194 423.543 333.268L428.123 299.941C428.25 299.114 432.193 298.86 436.073 298.86C439.317 298.86 442.179 298.987 442.37 299.941L450.002 332.632C450.066 332.887 450.129 332.95 450.256 332.95C450.32 332.95 450.447 332.887 450.511 332.632Z" fill="url(#paint1_linear_0_154)"/>
</g>
<path d="M134.716 94.4778C134.716 99.2389 137.319 100.652 142.155 101.247C142.973 101.322 143.345 101.991 143.345 102.661C143.345 103.405 142.899 104 142.081 104H117.308C116.638 104 116.118 103.554 116.118 102.735C116.118 101.991 116.564 101.471 117.234 101.247C121.102 99.9828 121.474 96.4864 121.548 93.0644L122.515 63.2332C122.515 60.6294 121.623 58.1001 118.573 57.7281C117.903 57.6537 117.531 57.133 117.531 56.4635C117.531 55.5708 118.201 54.9756 118.796 54.9756H130.401C134.121 54.9756 139.551 54.6037 146.842 54.6037C158.224 54.6037 163.059 61.0014 163.059 68.8869C163.059 78.2603 156.066 88.0057 140.89 88.0057H134.939L134.716 94.4778ZM140.221 83.6166C146.842 83.6166 150.115 79.0043 150.115 73.1273C150.115 62.3405 141.932 58.6952 137.171 58.6952C136.427 58.6952 135.906 58.9184 135.906 59.6623L135.162 79.9714C135.162 81.0872 135.46 81.9056 136.204 82.5007C137.171 83.2446 138.51 83.6166 140.221 83.6166ZM186.122 65.093L185.155 95.1473C185.155 97.9742 185.75 100.876 189.097 101.247C189.841 101.322 190.213 101.917 190.213 102.587C190.213 103.479 189.544 104 188.874 104H167.673C167.003 104 166.557 103.554 166.557 102.735C166.557 101.991 166.929 101.471 167.598 101.247C171.541 100.057 171.839 96.4864 171.987 92.99L172.954 63.9027C172.954 61.0758 172.434 58.1745 168.937 57.7281C168.268 57.6537 167.896 57.133 167.896 56.4635C167.896 55.5708 168.565 54.9756 169.235 54.9756H190.437C191.106 54.9756 191.552 55.4964 191.552 56.3147C191.552 57.0586 191.18 57.5794 190.511 57.7281C187.089 58.9184 186.196 61.8197 186.122 65.093ZM223.593 54.1573C239.141 54.1573 246.58 65.1673 246.58 76.9957C246.58 90.535 236.909 104.893 218.683 104.893C202.837 104.893 195.621 94.1802 195.621 82.5751C195.621 68.9613 205.59 54.1573 223.593 54.1573ZM218.236 60.927C210.723 60.927 207.375 67.5479 207.375 75.2103C207.375 85.6252 213.624 98.1974 223.89 98.1974C231.478 98.1974 234.826 91.7253 234.826 84.1373C234.826 73.648 228.354 60.927 218.236 60.927ZM272.399 56.4635L288.468 82.6495C291.667 87.7825 292.187 91.4277 292.336 91.4277C292.485 91.4277 292.336 89.4192 292.559 83.691L293.229 64.349C293.229 60.3319 291.295 58.1745 288.096 57.7281C287.352 57.6537 286.906 57.0586 286.906 56.3891C286.906 55.6452 287.352 54.9756 288.17 54.9756H302.825C303.644 54.9756 304.09 55.5708 304.09 56.3891C304.09 57.0586 303.718 57.6537 302.9 57.7281C300.222 58.5465 299.329 60.3319 299.18 63.9771L297.841 103.405C297.841 104.223 295.237 104.595 291.741 104.595C289.584 104.595 287.65 104 285.938 102.512C284.376 101.173 283.112 99.3877 281.401 96.6352L265.853 71.4907C263.844 68.2174 263.175 65.8369 263.026 65.8369C262.877 65.8369 262.951 67.4735 262.877 70.5236L262.059 94.701C262.059 98.9413 264.29 100.727 267.638 101.247C268.382 101.396 268.754 101.991 268.754 102.735C268.754 103.405 268.382 104 267.564 104H251.941C251.049 104 250.453 103.405 250.453 102.735C250.453 102.14 250.825 101.545 251.644 101.247C255.289 100.132 255.958 97.8999 256.107 94.1802L257.149 64.2003C257.149 61.1502 256.107 58.6208 252.611 57.7281C251.867 57.5794 251.495 56.9842 251.495 56.3891C251.495 55.6452 252.016 54.9756 252.908 54.9756H269.944C271.134 54.9756 271.804 55.4964 272.399 56.4635ZM309.202 54.9756H328.023C336.207 54.9756 342.307 54.6037 345.952 54.6037C348.63 54.6037 349.672 56.0171 349.672 58.2489L348.779 66.5064C348.63 67.6967 348.109 68.143 347.365 68.143C346.77 68.143 346.175 67.7711 345.729 66.9528C343.869 62.7868 341.191 60.7038 337.099 59.8111C335.239 59.216 329.958 58.9184 327.205 58.9184C326.684 58.9184 326.312 59.216 326.312 59.6623L325.792 74.0944C325.792 75.5078 326.387 76.1774 327.875 76.1774C329.288 76.1774 334.049 76.0286 335.314 75.8054C337.918 75.5822 340.447 75.1359 342.604 74.4664C343.125 74.3176 343.72 74.1688 344.167 74.1688C344.91 74.1688 345.208 74.5407 345.208 75.3591L344.464 81.5336C344.39 82.3519 344.092 83.0958 343.125 83.0958C341.488 83.0958 339.257 81.98 336.207 81.5336C333.677 80.8641 330.404 80.7897 327.577 80.7897C326.312 80.7897 325.643 81.6824 325.569 82.7239L325.048 95.8169C325.048 98.7926 326.461 100.206 330.255 100.206C331.966 100.206 335.165 99.9084 336.951 99.4621C340.893 98.4206 344.613 96.4864 346.993 92.0229C347.365 91.3534 347.961 90.9814 348.63 90.9814C349.448 90.9814 349.895 91.5765 349.895 92.5436L349.3 100.95C349.151 103.33 347.365 104.521 344.91 104.521C343.646 104.521 333.231 104 327.056 104H307.714C306.971 104 306.524 103.554 306.524 102.735C306.524 101.991 306.896 101.471 307.64 101.247C311.508 99.9828 311.806 96.4864 311.955 93.0644L312.996 63.7539C312.996 60.927 312.327 58.1745 308.905 57.7281C308.31 57.6537 307.938 57.133 307.938 56.4635C307.938 55.5708 308.533 54.9756 309.202 54.9756ZM355.915 54.9756H374.736C382.92 54.9756 389.02 54.6037 392.665 54.6037C395.343 54.6037 396.385 56.0171 396.385 58.2489L395.492 66.5064C395.343 67.6967 394.822 68.143 394.078 68.143C393.483 68.143 392.888 67.7711 392.442 66.9528C390.582 62.7868 387.904 60.7038 383.812 59.8111C381.952 59.216 376.671 58.9184 373.918 58.9184C373.397 58.9184 373.025 59.216 373.025 59.6623L372.505 74.0944C372.505 75.5078 373.1 76.1774 374.588 76.1774C376.001 76.1774 380.762 76.0286 382.027 75.8054C384.631 75.5822 387.16 75.1359 389.317 74.4664C389.838 74.3176 390.433 74.1688 390.88 74.1688C391.623 74.1688 391.921 74.5407 391.921 75.3591L391.177 81.5336C391.103 82.3519 390.805 83.0958 389.838 83.0958C388.201 83.0958 385.97 81.98 382.92 81.5336C380.39 80.8641 377.117 80.7897 374.29 80.7897C373.025 80.7897 372.356 81.6824 372.282 82.7239L371.761 95.8169C371.761 98.7926 373.174 100.206 376.968 100.206C378.679 100.206 381.878 99.9084 383.663 99.4621C387.606 98.4206 391.326 96.4864 393.706 92.0229C394.078 91.3534 394.674 90.9814 395.343 90.9814C396.161 90.9814 396.608 91.5765 396.608 92.5436L396.013 100.95C395.864 103.33 394.078 104.521 391.623 104.521C390.359 104.521 379.944 104 373.769 104H354.427C353.683 104 353.237 103.554 353.237 102.735C353.237 101.991 353.609 101.471 354.353 101.247C358.221 99.9828 358.519 96.4864 358.668 93.0644L359.709 63.7539C359.709 60.927 359.04 58.1745 355.618 57.7281C355.023 57.6537 354.651 57.133 354.651 56.4635C354.651 55.5708 355.246 54.9756 355.915 54.9756ZM430.6 54.6037C440.494 54.6037 448.826 58.3233 448.826 67.8455C448.826 76.2518 440.94 81.1616 433.575 81.8312C433.278 81.9056 433.278 81.98 433.278 82.0543C433.278 82.1287 433.278 82.2031 433.501 82.5007C437.072 85.9971 440.643 89.196 444.66 92.6924C448.305 95.8169 452.248 98.7182 456.339 100.578C456.86 100.801 457.158 101.099 457.158 101.694C457.158 102.438 456.637 102.884 455.967 103.033C453.066 104.074 449.793 104.818 446.52 104.818C441.535 104.818 437.146 103.33 434.245 100.801C430.153 97.1559 427.55 92.3948 424.871 86.8154C423.532 84.0629 422.342 82.5751 420.036 82.5751L419.59 94.1802C419.59 98.9413 421.524 100.578 425.541 101.247C426.285 101.396 426.806 101.991 426.806 102.661C426.806 103.405 426.285 104 425.318 104H402.182C401.512 104 401.066 103.554 401.066 102.735C401.066 101.991 401.438 101.471 402.107 101.247C405.976 99.9828 406.422 96.5608 406.497 93.0644L407.464 63.9027C407.464 61.0758 406.943 58.1745 403.447 57.7281C402.851 57.6537 402.405 57.133 402.405 56.4635C402.479 55.5708 403.075 54.9756 403.744 54.9756H414.903C418.474 54.9756 426.285 54.6037 430.6 54.6037ZM425.169 79.2274C431.046 79.2274 435.063 76.0286 435.063 70.4492C435.063 63.0844 428.665 58.844 422.119 58.844C421.226 58.844 420.854 59.2904 420.78 60.3319L420.185 76.9213C420.259 78.4835 421.673 79.2274 425.169 79.2274ZM481.319 54.1573C487.791 54.1573 493.743 55.8683 493.743 61.299C493.743 63.1588 492.924 67.7711 492.924 68.9613C492.924 69.6309 492.404 69.9284 491.734 69.9284C491.213 69.9284 490.767 69.6309 490.544 69.1845C487.494 64.1259 482.361 60.4063 476.558 60.3319C474.922 60.3319 472.987 60.7782 471.5 61.5965C470.012 62.4892 468.97 63.9027 468.97 65.6881C468.97 67.3247 469.937 68.4406 471.276 69.4077C474.029 71.3419 478.418 72.6066 481.766 73.8712C488.684 76.4749 495.677 79.9714 495.677 88.2289C495.677 97.9742 487.048 104.893 473.062 104.893C465.399 104.893 458.258 102.959 458.258 96.8584C458.258 95.5937 459.002 90.0887 459.002 89.0472C459.002 88.5265 459.522 88.1545 460.192 88.1545C460.713 88.1545 461.233 88.3777 461.457 88.7496C465.325 94.5522 471.128 98.6438 478.269 98.6438C480.129 98.6438 482.138 98.123 483.625 97.0815C484.89 96.1888 485.783 94.9986 485.783 93.3619C485.783 91.7253 484.816 90.535 483.477 89.5679C480.575 87.5594 476.112 86.2947 472.467 84.8812C465.92 82.2775 459.076 78.7811 459.076 70.5236C459.076 60.3319 469.045 54.1573 481.319 54.1573ZM537.159 65.093L536.192 95.1473C536.192 97.9742 536.787 100.876 540.135 101.247C540.879 101.322 541.251 101.917 541.251 102.587C541.251 103.479 540.581 104 539.912 104H518.71C518.041 104 517.594 103.554 517.594 102.735C517.594 101.991 517.966 101.471 518.636 101.247C522.578 100.057 522.876 96.4864 523.025 92.99L523.992 63.9027C523.992 61.0758 523.471 58.1745 519.975 57.7281C519.305 57.6537 518.933 57.133 518.933 56.4635C518.933 55.5708 519.603 54.9756 520.272 54.9756H541.474C542.144 54.9756 542.59 55.4964 542.59 56.3147C542.59 57.0586 542.218 57.5794 541.548 57.7281C538.126 58.9184 537.234 61.8197 537.159 65.093ZM567.861 56.4635L583.929 82.6495C587.128 87.7825 587.649 91.4277 587.798 91.4277C587.946 91.4277 587.798 89.4192 588.021 83.691L588.69 64.349C588.69 60.3319 586.756 58.1745 583.557 57.7281C582.813 57.6537 582.367 57.0586 582.367 56.3891C582.367 55.6452 582.813 54.9756 583.632 54.9756H598.287C599.105 54.9756 599.552 55.5708 599.552 56.3891C599.552 57.0586 599.18 57.6537 598.361 57.7281C595.683 58.5465 594.79 60.3319 594.642 63.9771L593.303 103.405C593.303 104.223 590.699 104.595 587.202 104.595C585.045 104.595 583.111 104 581.4 102.512C579.838 101.173 578.573 99.3877 576.862 96.6352L561.314 71.4907C559.305 68.2174 558.636 65.8369 558.487 65.8369C558.338 65.8369 558.413 67.4735 558.338 70.5236L557.52 94.701C557.52 98.9413 559.752 100.727 563.099 101.247C563.843 101.396 564.215 101.991 564.215 102.735C564.215 103.405 563.843 104 563.025 104H547.403C546.51 104 545.915 103.405 545.915 102.735C545.915 102.14 546.287 101.545 547.105 101.247C550.75 100.132 551.42 97.8999 551.569 94.1802L552.61 64.2003C552.61 61.1502 551.569 58.6208 548.072 57.7281C547.328 57.5794 546.956 56.9842 546.956 56.3891C546.956 55.6452 547.477 54.9756 548.37 54.9756H565.406C566.596 54.9756 567.265 55.4964 567.861 56.4635ZM85.1549 140.976H99.6614C105.018 140.976 109.109 140.604 111.49 140.604C115.061 140.604 115.284 143.207 115.284 144.472C115.284 146.704 114.689 152.73 114.689 154.738C114.689 155.705 113.87 156.152 113.201 156.152C112.382 156.152 111.862 155.631 111.638 154.738C110.746 150.498 107.696 147.225 103.753 146.109C102.786 145.662 100.777 145.439 99.8102 145.439C99.3638 145.439 98.9918 145.737 98.9174 146.332L97.8016 178.99C97.8016 184.049 99.6614 186.355 103.753 187.247C104.422 187.396 104.794 187.917 104.794 188.587C104.794 189.479 104.199 190 103.455 190H79.7243C79.0548 190 78.6084 189.554 78.6084 188.735C78.6084 187.991 78.9804 187.396 79.6499 187.247C82.9975 185.834 84.4854 182.784 84.6342 179.064L85.7501 146.257C85.7501 145.662 85.2293 145.439 84.783 145.439C83.6671 145.439 81.5841 145.588 80.617 145.96C76.451 147.076 73.4754 150.275 71.6156 154.589C71.2436 155.631 70.5741 156.152 69.7558 156.152C69.0862 156.152 68.5655 155.631 68.5655 154.887L70.3509 144.323C70.5741 142.91 71.318 140.604 74.3681 140.604C77.8645 140.604 81.1377 140.976 85.1549 140.976ZM122.223 178.99L123.19 149.754C123.19 147.001 122.521 144.174 119.173 143.728C118.503 143.654 118.132 143.133 118.132 142.463C118.132 141.571 118.727 140.976 119.471 140.976H140.672C141.342 140.976 141.788 141.496 141.788 142.315C141.788 143.059 141.416 143.579 140.747 143.728C137.473 144.918 136.581 147.522 136.432 151.019L136.06 161.433C136.06 161.657 136.06 161.805 136.358 161.805H151.459C153.542 161.805 154.807 161.136 154.881 159.425L155.253 149.903C155.253 147.076 154.658 144.174 151.236 143.728C150.641 143.654 150.194 143.133 150.194 142.463C150.194 141.571 150.864 140.976 151.534 140.976H172.81C173.405 140.976 173.926 141.496 173.926 142.315C173.926 143.059 173.479 143.579 172.884 143.728C169.388 144.918 168.569 147.597 168.421 151.093L167.379 181.147C167.379 184.049 168.049 186.876 171.396 187.247C172.14 187.322 172.512 187.917 172.512 188.587C172.512 189.479 171.917 190 171.173 190H149.971C149.302 190 148.855 189.554 148.855 188.735C148.855 187.991 149.227 187.471 149.897 187.247C153.617 186.057 154.137 182.784 154.286 178.99L154.658 167.757C154.658 167.31 154.36 167.162 153.84 167.162H139.705C137.027 167.162 135.837 167.831 135.762 169.542L135.316 181.147C135.316 183.974 135.986 186.876 139.408 187.247C140.077 187.322 140.449 187.917 140.449 188.587C140.449 189.479 139.78 190 139.11 190H117.908C117.239 190 116.792 189.554 116.792 188.735C116.792 187.991 117.164 187.471 117.834 187.247C121.554 186.057 122.149 182.635 122.223 178.99ZM179.307 140.976H198.128C206.311 140.976 212.411 140.604 216.056 140.604C218.735 140.604 219.776 142.017 219.776 144.249L218.883 152.506C218.735 153.697 218.214 154.143 217.47 154.143C216.875 154.143 216.28 153.771 215.833 152.953C213.973 148.787 211.295 146.704 207.204 145.811C205.344 145.216 200.062 144.918 197.31 144.918C196.789 144.918 196.417 145.216 196.417 145.662L195.896 160.094C195.896 161.508 196.491 162.177 197.979 162.177C199.393 162.177 204.154 162.029 205.418 161.805C208.022 161.582 210.551 161.136 212.709 160.466C213.23 160.318 213.825 160.169 214.271 160.169C215.015 160.169 215.313 160.541 215.313 161.359L214.569 167.534C214.494 168.352 214.197 169.096 213.23 169.096C211.593 169.096 209.361 167.98 206.311 167.534C203.782 166.864 200.509 166.79 197.682 166.79C196.417 166.79 195.747 167.682 195.673 168.724L195.152 181.817C195.152 184.793 196.566 186.206 200.36 186.206C202.071 186.206 205.27 185.908 207.055 185.462C210.998 184.421 214.717 182.486 217.098 178.023C217.47 177.353 218.065 176.981 218.735 176.981C219.553 176.981 219.999 177.577 219.999 178.544L219.404 186.95C219.255 189.33 217.47 190.521 215.015 190.521C213.75 190.521 203.335 190 197.161 190H177.819C177.075 190 176.629 189.554 176.629 188.735C176.629 187.991 177.001 187.471 177.745 187.247C181.613 185.983 181.91 182.486 182.059 179.064L183.101 149.754C183.101 146.927 182.431 144.174 179.009 143.728C178.414 143.654 178.042 143.133 178.042 142.463C178.042 141.571 178.637 140.976 179.307 140.976ZM153.459 266.478C153.459 271.239 156.063 272.652 160.898 273.247C161.717 273.322 162.089 273.991 162.089 274.661C162.089 275.405 161.642 276 160.824 276H136.051C135.382 276 134.861 275.554 134.861 274.735C134.861 273.991 135.307 273.471 135.977 273.247C139.845 271.983 140.217 268.486 140.292 265.064L141.259 235.233C141.259 232.629 140.366 230.1 137.316 229.728C136.646 229.654 136.274 229.133 136.274 228.463C136.274 227.571 136.944 226.976 137.539 226.976H149.144C152.864 226.976 158.295 226.604 165.585 226.604C176.967 226.604 181.802 233.001 181.802 240.887C181.802 250.26 174.81 260.006 159.634 260.006H153.682L153.459 266.478ZM158.964 255.617C165.585 255.617 168.858 251.004 168.858 245.127C168.858 234.34 160.675 230.695 155.914 230.695C155.17 230.695 154.649 230.918 154.649 231.662L153.905 251.971C153.905 253.087 154.203 253.906 154.947 254.501C155.914 255.245 157.253 255.617 158.964 255.617ZM203.824 237.911L202.857 265.734C202.857 270.421 205.683 271.536 209.924 271.536C214.239 271.536 217.809 270.346 220.264 267.817C221.975 266.255 223.24 264.172 223.909 261.866C224.207 261.047 224.728 260.526 225.695 260.526C226.736 260.526 227.257 261.27 227.257 262.461L226.364 272.876C226.216 275.182 224.356 276.521 221.826 276.521C219.223 276.521 212.751 276 205.237 276H185.3C184.63 276 184.184 275.554 184.184 274.735C184.184 273.991 184.556 273.471 185.226 273.247C188.796 272.057 189.392 268.858 189.54 265.511L190.582 235.903C190.582 233.076 190.061 230.174 186.639 229.728C185.895 229.654 185.523 229.133 185.523 228.463C185.523 227.571 186.193 226.976 186.862 226.976H208.213C208.882 226.976 209.329 227.496 209.329 228.315C209.329 229.059 208.957 229.579 208.287 229.728C204.419 230.918 203.898 234.564 203.824 237.911ZM254.983 226.529C258.108 226.529 260.786 226.976 261.158 228.017L274.623 265.883C275.813 269.23 277.301 271.611 280.872 273.099C281.467 273.396 282.285 273.843 282.285 274.661C282.285 275.554 281.616 276 280.872 276H257.885C257.141 276 256.62 275.405 256.62 274.661C256.62 274.066 257.066 273.396 257.81 273.247C259.67 273.024 261.381 272.132 261.381 269.9C261.381 269.305 261.232 268.635 261.009 267.966L258.926 262.014C258.777 261.419 258.554 261.27 257.959 261.27H244.866C242.337 261.27 240.254 262.014 239.287 264.395L237.576 268.561C237.352 269.156 237.204 269.825 237.204 270.346C237.204 272.727 239.361 273.247 241.295 273.247C242.113 273.247 242.485 273.917 242.485 274.587C242.485 275.33 242.039 276 241.295 276H226.342C225.375 276 224.929 275.405 224.929 274.735C224.929 274.14 225.226 273.545 226.045 273.247C229.764 271.983 231.103 269.453 232.368 266.329L247.693 228.24C248.214 226.976 251.338 226.529 254.983 226.529ZM248.139 241.556L242.56 255.765C242.411 255.989 242.411 256.063 242.411 256.212C242.411 256.36 242.56 256.36 242.709 256.36H255.578C256.397 256.36 256.62 256.137 256.62 255.617C256.62 255.319 256.546 255.021 256.471 254.649L252.156 242.152C251.412 239.92 250.817 238.06 250.371 235.828C250.371 235.68 250.297 235.605 250.222 235.605C250.148 235.605 250.073 235.68 250.073 235.828C249.553 237.688 248.883 239.622 248.139 241.556ZM304.437 228.463L320.506 254.649C323.705 259.783 324.225 263.428 324.374 263.428C324.523 263.428 324.374 261.419 324.597 255.691L325.267 236.349C325.267 232.332 323.333 230.174 320.134 229.728C319.39 229.654 318.944 229.059 318.944 228.389C318.944 227.645 319.39 226.976 320.208 226.976H334.863C335.682 226.976 336.128 227.571 336.128 228.389C336.128 229.059 335.756 229.654 334.938 229.728C332.26 230.546 331.367 232.332 331.218 235.977L329.879 275.405C329.879 276.223 327.275 276.595 323.779 276.595C321.622 276.595 319.687 276 317.976 274.512C316.414 273.173 315.15 271.388 313.439 268.635L297.891 243.491C295.882 240.217 295.213 237.837 295.064 237.837C294.915 237.837 294.989 239.474 294.915 242.524L294.097 266.701C294.097 270.941 296.328 272.727 299.676 273.247C300.42 273.396 300.792 273.991 300.792 274.735C300.792 275.405 300.42 276 299.602 276H283.979C283.087 276 282.491 275.405 282.491 274.735C282.491 274.14 282.863 273.545 283.682 273.247C287.327 272.132 287.996 269.9 288.145 266.18L289.187 236.2C289.187 233.15 288.145 230.621 284.649 229.728C283.905 229.579 283.533 228.984 283.533 228.389C283.533 227.645 284.054 226.976 284.946 226.976H301.982C303.172 226.976 303.842 227.496 304.437 228.463ZM341.24 226.976H360.061C368.245 226.976 374.345 226.604 377.99 226.604C380.668 226.604 381.71 228.017 381.71 230.249L380.817 238.506C380.668 239.697 380.147 240.143 379.403 240.143C378.808 240.143 378.213 239.771 377.767 238.953C375.907 234.787 373.229 232.704 369.137 231.811C367.277 231.216 361.996 230.918 359.243 230.918C358.722 230.918 358.35 231.216 358.35 231.662L357.83 246.094C357.83 247.508 358.425 248.177 359.913 248.177C361.326 248.177 366.087 248.029 367.352 247.805C369.956 247.582 372.485 247.136 374.642 246.466C375.163 246.318 375.758 246.169 376.205 246.169C376.948 246.169 377.246 246.541 377.246 247.359L376.502 253.534C376.428 254.352 376.13 255.096 375.163 255.096C373.526 255.096 371.295 253.98 368.245 253.534C365.715 252.864 362.442 252.79 359.615 252.79C358.35 252.79 357.681 253.682 357.607 254.724L357.086 267.817C357.086 270.793 358.499 272.206 362.293 272.206C364.004 272.206 367.203 271.908 368.988 271.462C372.931 270.421 376.651 268.486 379.031 264.023C379.403 263.353 379.999 262.981 380.668 262.981C381.486 262.981 381.933 263.577 381.933 264.544L381.338 272.95C381.189 275.33 379.403 276.521 376.948 276.521C375.684 276.521 365.269 276 359.094 276H339.752C339.009 276 338.562 275.554 338.562 274.735C338.562 273.991 338.934 273.471 339.678 273.247C343.546 271.983 343.844 268.486 343.993 265.064L345.034 235.754C345.034 232.927 344.365 230.174 340.943 229.728C340.348 229.654 339.976 229.133 339.976 228.463C339.976 227.571 340.571 226.976 341.24 226.976ZM400.377 226.976H414.883C420.239 226.976 424.331 226.604 426.712 226.604C430.282 226.604 430.506 229.207 430.506 230.472C430.506 232.704 429.91 238.73 429.91 240.738C429.91 241.705 429.092 242.152 428.423 242.152C427.604 242.152 427.083 241.631 426.86 240.738C425.968 236.498 422.918 233.225 418.975 232.109C418.008 231.662 415.999 231.439 415.032 231.439C414.586 231.439 414.214 231.737 414.139 232.332L413.023 264.99C413.023 270.049 414.883 272.355 418.975 273.247C419.644 273.396 420.016 273.917 420.016 274.587C420.016 275.479 419.421 276 418.677 276H394.946C394.277 276 393.83 275.554 393.83 274.735C393.83 273.991 394.202 273.396 394.872 273.247C398.219 271.834 399.707 268.784 399.856 265.064L400.972 232.257C400.972 231.662 400.451 231.439 400.005 231.439C398.889 231.439 396.806 231.588 395.839 231.96C391.673 233.076 388.697 236.275 386.837 240.589C386.465 241.631 385.796 242.152 384.978 242.152C384.308 242.152 383.787 241.631 383.787 240.887L385.573 230.323C385.796 228.91 386.54 226.604 389.59 226.604C393.086 226.604 396.36 226.976 400.377 226.976ZM455.13 226.529C458.254 226.529 460.932 226.976 461.304 228.017L474.769 265.883C475.96 269.23 477.447 271.611 481.018 273.099C481.613 273.396 482.432 273.843 482.432 274.661C482.432 275.554 481.762 276 481.018 276H458.031C457.287 276 456.766 275.405 456.766 274.661C456.766 274.066 457.213 273.396 457.957 273.247C459.817 273.024 461.528 272.132 461.528 269.9C461.528 269.305 461.379 268.635 461.156 267.966L459.073 262.014C458.924 261.419 458.701 261.27 458.106 261.27H445.013C442.483 261.27 440.4 262.014 439.433 264.395L437.722 268.561C437.499 269.156 437.35 269.825 437.35 270.346C437.35 272.727 439.508 273.247 441.442 273.247C442.26 273.247 442.632 273.917 442.632 274.587C442.632 275.33 442.186 276 441.442 276H426.489C425.522 276 425.075 275.405 425.075 274.735C425.075 274.14 425.373 273.545 426.191 273.247C429.911 271.983 431.25 269.453 432.515 266.329L447.839 228.24C448.36 226.976 451.485 226.529 455.13 226.529ZM448.286 241.556L442.706 255.765C442.558 255.989 442.558 256.063 442.558 256.212C442.558 256.36 442.706 256.36 442.855 256.36H455.725C456.543 256.36 456.766 256.137 456.766 255.617C456.766 255.319 456.692 255.021 456.618 254.649L452.303 242.152C451.559 239.92 450.964 238.06 450.518 235.828C450.518 235.68 450.443 235.605 450.369 235.605C450.294 235.605 450.22 235.68 450.22 235.828C449.699 237.688 449.03 239.622 448.286 241.556ZM512.692 226.604C522.587 226.604 530.918 230.323 530.918 239.845C530.918 248.252 523.033 253.162 515.668 253.831C515.371 253.906 515.371 253.98 515.371 254.054C515.371 254.129 515.371 254.203 515.594 254.501C519.165 257.997 522.735 261.196 526.753 264.692C530.398 267.817 534.341 270.718 538.432 272.578C538.953 272.801 539.25 273.099 539.25 273.694C539.25 274.438 538.73 274.884 538.06 275.033C535.159 276.074 531.886 276.818 528.612 276.818C523.628 276.818 519.239 275.33 516.338 272.801C512.246 269.156 509.642 264.395 506.964 258.815C505.625 256.063 504.435 254.575 502.129 254.575L501.682 266.18C501.682 270.941 503.617 272.578 507.634 273.247C508.378 273.396 508.898 273.991 508.898 274.661C508.898 275.405 508.378 276 507.411 276H484.275C483.605 276 483.159 275.554 483.159 274.735C483.159 273.991 483.531 273.471 484.2 273.247C488.069 271.983 488.515 268.561 488.589 265.064L489.556 235.903C489.556 233.076 489.036 230.174 485.539 229.728C484.944 229.654 484.498 229.133 484.498 228.463C484.572 227.571 485.167 226.976 485.837 226.976H496.996C500.567 226.976 508.378 226.604 512.692 226.604ZM507.262 251.227C513.139 251.227 517.156 248.029 517.156 242.449C517.156 235.084 510.758 230.844 504.212 230.844C503.319 230.844 502.947 231.29 502.873 232.332L502.278 248.921C502.352 250.484 503.765 251.227 507.262 251.227ZM566.611 257.923L566.313 266.18C566.313 269.974 567.28 272.504 571.446 273.247C572.19 273.396 572.637 273.991 572.637 274.661C572.637 275.33 572.116 276 571.149 276H548.162C547.269 276 546.823 275.405 546.823 274.735C546.823 274.14 547.195 273.545 547.939 273.247C551.658 272.206 552.997 269.751 553.146 266.18L553.444 258.369C553.444 256.286 552.997 254.873 551.286 251.599L542.954 236.126C541.02 232.555 539.16 230.695 535.366 229.728C534.622 229.579 534.25 228.984 534.25 228.389C534.25 227.571 534.771 226.976 535.664 226.976H558.8C559.693 226.976 560.288 227.645 560.288 228.389C560.288 229.059 559.767 229.728 558.874 229.728C557.312 229.728 555.75 230.472 555.75 232.332C555.75 233.15 555.973 233.968 556.419 234.861L563.784 249.293H564.082L573.753 234.712C574.199 234.117 574.348 233.373 574.422 232.704C574.422 230.1 571.521 229.728 569.363 229.728C568.396 229.728 567.95 229.059 567.95 228.389C567.95 227.645 568.471 226.976 569.438 226.976H586.325C587.218 226.976 587.813 227.571 587.813 228.389C587.813 228.984 587.441 229.579 586.697 229.728C583.944 230.472 582.085 232.332 579.481 236.126L569.215 251.079C567.429 253.608 566.685 255.096 566.611 257.923Z" fill="white"/>
<path d="M259.308 180.478C259.308 185.239 261.912 186.652 266.747 187.247C267.565 187.322 267.937 187.991 267.937 188.661C267.937 189.405 267.491 190 266.673 190H241.9C241.231 190 240.71 189.554 240.71 188.735C240.71 187.991 241.156 187.471 241.826 187.247C245.694 185.983 246.066 182.486 246.14 179.064L247.108 149.233C247.108 146.629 246.215 144.1 243.165 143.728C242.495 143.654 242.123 143.133 242.123 142.463C242.123 141.571 242.793 140.976 243.388 140.976H254.993C258.713 140.976 264.143 140.604 271.434 140.604C282.816 140.604 287.651 147.001 287.651 154.887C287.651 164.26 280.658 174.006 265.482 174.006H259.531L259.308 180.478ZM264.813 169.617C271.434 169.617 274.707 165.004 274.707 159.127C274.707 148.34 266.524 144.695 261.763 144.695C261.019 144.695 260.498 144.918 260.498 145.662L259.754 165.971C259.754 167.087 260.052 167.906 260.796 168.501C261.763 169.245 263.102 169.617 264.813 169.617ZM314.264 140.529C317.389 140.529 320.067 140.976 320.439 142.017L333.904 179.883C335.094 183.23 336.582 185.611 340.153 187.099C340.748 187.396 341.566 187.843 341.566 188.661C341.566 189.554 340.897 190 340.153 190H317.166C316.422 190 315.901 189.405 315.901 188.661C315.901 188.066 316.347 187.396 317.091 187.247C318.951 187.024 320.662 186.132 320.662 183.9C320.662 183.305 320.513 182.635 320.29 181.966L318.207 176.014C318.058 175.419 317.835 175.27 317.24 175.27H304.147C301.618 175.27 299.535 176.014 298.568 178.395L296.857 182.561C296.633 183.156 296.485 183.825 296.485 184.346C296.485 186.727 298.642 187.247 300.576 187.247C301.395 187.247 301.767 187.917 301.767 188.587C301.767 189.33 301.32 190 300.576 190H285.623C284.656 190 284.21 189.405 284.21 188.735C284.21 188.14 284.508 187.545 285.326 187.247C289.046 185.983 290.385 183.453 291.649 180.329L306.974 142.24C307.495 140.976 310.619 140.529 314.264 140.529ZM307.42 155.556L301.841 169.765C301.692 169.989 301.692 170.063 301.692 170.212C301.692 170.36 301.841 170.36 301.99 170.36H314.86C315.678 170.36 315.901 170.137 315.901 169.617C315.901 169.319 315.827 169.021 315.752 168.649L311.438 156.152C310.694 153.92 310.098 152.06 309.652 149.828C309.652 149.68 309.578 149.605 309.503 149.605C309.429 149.605 309.355 149.68 309.355 149.828C308.834 151.688 308.164 153.622 307.42 155.556ZM371.827 140.604C381.721 140.604 390.053 144.323 390.053 153.845C390.053 162.252 382.167 167.162 374.803 167.831C374.505 167.906 374.505 167.98 374.505 168.054C374.505 168.129 374.505 168.203 374.728 168.501C378.299 171.997 381.87 175.196 385.887 178.692C389.532 181.817 393.475 184.718 397.567 186.578C398.087 186.801 398.385 187.099 398.385 187.694C398.385 188.438 397.864 188.884 397.195 189.033C394.293 190.074 391.02 190.818 387.747 190.818C382.763 190.818 378.374 189.33 375.472 186.801C371.381 183.156 368.777 178.395 366.099 172.815C364.76 170.063 363.569 168.575 361.263 168.575L360.817 180.18C360.817 184.941 362.751 186.578 366.768 187.247C367.512 187.396 368.033 187.991 368.033 188.661C368.033 189.405 367.512 190 366.545 190H343.409C342.74 190 342.293 189.554 342.293 188.735C342.293 187.991 342.665 187.471 343.335 187.247C347.203 185.983 347.65 182.561 347.724 179.064L348.691 149.903C348.691 147.076 348.17 144.174 344.674 143.728C344.079 143.654 343.632 143.133 343.632 142.463C343.707 141.571 344.302 140.976 344.971 140.976H356.13C359.701 140.976 367.512 140.604 371.827 140.604ZM366.396 165.227C372.273 165.227 376.291 162.029 376.291 156.449C376.291 149.084 369.893 144.844 363.346 144.844C362.454 144.844 362.082 145.29 362.007 146.332L361.412 162.921C361.487 164.484 362.9 165.227 366.396 165.227ZM424.109 140.529C427.233 140.529 429.912 140.976 430.283 142.017L443.748 179.883C444.939 183.23 446.427 185.611 449.997 187.099C450.592 187.396 451.411 187.843 451.411 188.661C451.411 189.554 450.741 190 449.997 190H427.01C426.266 190 425.746 189.405 425.746 188.661C425.746 188.066 426.192 187.396 426.936 187.247C428.796 187.024 430.507 186.132 430.507 183.9C430.507 183.305 430.358 182.635 430.135 181.966L428.052 176.014C427.903 175.419 427.68 175.27 427.085 175.27H413.992C411.462 175.27 409.379 176.014 408.412 178.395L406.701 182.561C406.478 183.156 406.329 183.825 406.329 184.346C406.329 186.727 408.487 187.247 410.421 187.247C411.239 187.247 411.611 187.917 411.611 188.587C411.611 189.33 411.165 190 410.421 190H395.468C394.501 190 394.055 189.405 394.055 188.735C394.055 188.14 394.352 187.545 395.17 187.247C398.89 185.983 400.229 183.453 401.494 180.329L416.819 142.24C417.339 140.976 420.464 140.529 424.109 140.529ZM417.265 155.556L411.685 169.765C411.537 169.989 411.537 170.063 411.537 170.212C411.537 170.36 411.685 170.36 411.834 170.36H424.704C425.522 170.36 425.746 170.137 425.746 169.617C425.746 169.319 425.671 169.021 425.597 168.649L421.282 156.152C420.538 153.92 419.943 152.06 419.497 149.828C419.497 149.68 419.422 149.605 419.348 149.605C419.273 149.605 419.199 149.68 419.199 149.828C418.678 151.688 418.009 153.622 417.265 155.556ZM470.661 151.911L469.694 179.734C469.694 184.421 472.521 185.536 476.762 185.536C481.076 185.536 484.647 184.346 487.102 181.817C488.813 180.255 490.078 178.172 490.747 175.866C491.045 175.047 491.566 174.526 492.533 174.526C493.574 174.526 494.095 175.27 494.095 176.461L493.202 186.876C493.054 189.182 491.194 190.521 488.664 190.521C486.061 190.521 479.589 190 472.075 190H452.138C451.468 190 451.022 189.554 451.022 188.735C451.022 187.991 451.394 187.471 452.063 187.247C455.634 186.057 456.229 182.858 456.378 179.511L457.42 149.903C457.42 147.076 456.899 144.174 453.477 143.728C452.733 143.654 452.361 143.133 452.361 142.463C452.361 141.571 453.031 140.976 453.7 140.976H475.051C475.72 140.976 476.167 141.496 476.167 142.315C476.167 143.059 475.795 143.579 475.125 143.728C471.257 144.918 470.736 148.564 470.661 151.911ZM514.977 151.911L514.01 179.734C514.01 184.421 516.837 185.536 521.077 185.536C525.392 185.536 528.963 184.346 531.418 181.817C533.129 180.255 534.393 178.172 535.063 175.866C535.36 175.047 535.881 174.526 536.848 174.526C537.89 174.526 538.411 175.27 538.411 176.461L537.518 186.876C537.369 189.182 535.509 190.521 532.98 190.521C530.376 190.521 523.904 190 516.391 190H496.453C495.784 190 495.338 189.554 495.338 188.735C495.338 187.991 495.71 187.471 496.379 187.247C499.95 186.057 500.545 182.858 500.694 179.511L501.735 149.903C501.735 147.076 501.215 144.174 497.793 143.728C497.049 143.654 496.677 143.133 496.677 142.463C496.677 141.571 497.346 140.976 498.016 140.976H519.366C520.036 140.976 520.482 141.496 520.482 142.315C520.482 143.059 520.11 143.579 519.441 143.728C515.572 144.918 515.051 148.564 514.977 151.911ZM542.331 140.976H561.152C569.336 140.976 575.436 140.604 579.081 140.604C581.759 140.604 582.801 142.017 582.801 144.249L581.908 152.506C581.759 153.697 581.238 154.143 580.494 154.143C579.899 154.143 579.304 153.771 578.858 152.953C576.998 148.787 574.32 146.704 570.228 145.811C568.368 145.216 563.087 144.918 560.334 144.918C559.813 144.918 559.441 145.216 559.441 145.662L558.921 160.094C558.921 161.508 559.516 162.177 561.004 162.177C562.417 162.177 567.178 162.029 568.443 161.805C571.047 161.582 573.576 161.136 575.733 160.466C576.254 160.318 576.849 160.169 577.296 160.169C578.039 160.169 578.337 160.541 578.337 161.359L577.593 167.534C577.519 168.352 577.221 169.096 576.254 169.096C574.617 169.096 572.386 167.98 569.336 167.534C566.806 166.864 563.533 166.79 560.706 166.79C559.441 166.79 558.772 167.682 558.698 168.724L558.177 181.817C558.177 184.793 559.59 186.206 563.384 186.206C565.095 186.206 568.294 185.908 570.08 185.462C574.022 184.421 577.742 182.486 580.122 178.023C580.494 177.353 581.09 176.981 581.759 176.981C582.577 176.981 583.024 177.577 583.024 178.544L582.429 186.95C582.28 189.33 580.494 190.521 578.039 190.521C576.775 190.521 566.36 190 560.185 190H540.843C540.1 190 539.653 189.554 539.653 188.735C539.653 187.991 540.025 187.471 540.769 187.247C544.637 185.983 544.935 182.486 545.084 179.064L546.125 149.754C546.125 146.927 545.456 144.174 542.034 143.728C541.439 143.654 541.067 143.133 541.067 142.463C541.067 141.571 541.662 140.976 542.331 140.976ZM606.006 151.911L605.039 179.734C605.039 184.421 607.865 185.536 612.106 185.536C616.421 185.536 619.991 184.346 622.446 181.817C624.157 180.255 625.422 178.172 626.091 175.866C626.389 175.047 626.91 174.526 627.877 174.526C628.918 174.526 629.439 175.27 629.439 176.461L628.546 186.876C628.398 189.182 626.538 190.521 624.009 190.521C621.405 190.521 614.933 190 607.419 190H587.482C586.812 190 586.366 189.554 586.366 188.735C586.366 187.991 586.738 187.471 587.408 187.247C590.978 186.057 591.574 182.858 591.722 179.511L592.764 149.903C592.764 147.076 592.243 144.174 588.821 143.728C588.077 143.654 587.705 143.133 587.705 142.463C587.705 141.571 588.375 140.976 589.044 140.976H610.395C611.064 140.976 611.511 141.496 611.511 142.315C611.511 143.059 611.139 143.579 610.469 143.728C606.601 144.918 606.08 148.564 606.006 151.911Z" fill="url(#paint2_linear_0_154)"/>
<path d="M234.46 312.157C240.932 312.157 246.883 313.868 246.883 319.299C246.883 321.159 246.065 325.771 246.065 326.961C246.065 327.631 245.544 327.928 244.875 327.928C244.354 327.928 243.908 327.631 243.684 327.185C240.634 322.126 235.501 318.406 229.699 318.332C228.062 318.332 226.128 318.778 224.64 319.597C223.152 320.489 222.111 321.903 222.111 323.688C222.111 325.325 223.078 326.441 224.417 327.408C227.169 329.342 231.558 330.607 234.906 331.871C241.825 334.475 248.817 337.971 248.817 346.229C248.817 355.974 240.188 362.893 226.202 362.893C218.54 362.893 211.398 360.959 211.398 354.858C211.398 353.594 212.142 348.089 212.142 347.047C212.142 346.526 212.663 346.154 213.332 346.154C213.853 346.154 214.374 346.378 214.597 346.75C218.465 352.552 224.268 356.644 231.41 356.644C233.27 356.644 235.278 356.123 236.766 355.082C238.031 354.189 238.923 352.999 238.923 351.362C238.923 349.725 237.956 348.535 236.617 347.568C233.716 345.559 229.252 344.295 225.607 342.881C219.061 340.278 212.217 336.781 212.217 328.524C212.217 318.332 222.185 312.157 234.46 312.157ZM280.594 343.923L280.296 352.18C280.296 355.974 281.263 358.504 285.429 359.247C286.173 359.396 286.62 359.991 286.62 360.661C286.62 361.33 286.099 362 285.132 362H262.145C261.252 362 260.806 361.405 260.806 360.735C260.806 360.14 261.178 359.545 261.921 359.247C265.641 358.206 266.98 355.751 267.129 352.18L267.426 344.369C267.426 342.286 266.98 340.873 265.269 337.599L256.937 322.126C255.003 318.555 253.143 316.695 249.349 315.728C248.605 315.579 248.233 314.984 248.233 314.389C248.233 313.571 248.754 312.976 249.647 312.976H272.783C273.675 312.976 274.271 313.645 274.271 314.389C274.271 315.059 273.75 315.728 272.857 315.728C271.295 315.728 269.733 316.472 269.733 318.332C269.733 319.15 269.956 319.968 270.402 320.861L277.767 335.293H278.065L287.736 320.712C288.182 320.117 288.331 319.373 288.405 318.704C288.405 316.1 285.504 315.728 283.346 315.728C282.379 315.728 281.933 315.059 281.933 314.389C281.933 313.645 282.454 312.976 283.421 312.976H300.308C301.2 312.976 301.796 313.571 301.796 314.389C301.796 314.984 301.424 315.579 300.68 315.728C297.927 316.472 296.067 318.332 293.464 322.126L283.198 337.079C281.412 339.608 280.668 341.096 280.594 343.923ZM322.146 312.157C328.619 312.157 334.57 313.868 334.57 319.299C334.57 321.159 333.752 325.771 333.752 326.961C333.752 327.631 333.231 327.928 332.561 327.928C332.041 327.928 331.594 327.631 331.371 327.185C328.321 322.126 323.188 318.406 317.385 318.332C315.749 318.332 313.815 318.778 312.327 319.597C310.839 320.489 309.797 321.903 309.797 323.688C309.797 325.325 310.765 326.441 312.104 327.408C314.856 329.342 319.245 330.607 322.593 331.871C329.511 334.475 336.504 337.971 336.504 346.229C336.504 355.974 327.875 362.893 313.889 362.893C306.227 362.893 299.085 360.959 299.085 354.858C299.085 353.594 299.829 348.089 299.829 347.047C299.829 346.526 300.35 346.154 301.019 346.154C301.54 346.154 302.061 346.378 302.284 346.75C306.152 352.552 311.955 356.644 319.096 356.644C320.956 356.644 322.965 356.123 324.453 355.082C325.717 354.189 326.61 352.999 326.61 351.362C326.61 349.725 325.643 348.535 324.304 347.568C321.403 345.559 316.939 344.295 313.294 342.881C306.747 340.278 299.903 336.781 299.903 328.524C299.903 318.332 309.872 312.157 322.146 312.157ZM355.988 312.976H370.495C375.851 312.976 379.943 312.604 382.323 312.604C385.894 312.604 386.117 315.207 386.117 316.472C386.117 318.704 385.522 324.73 385.522 326.738C385.522 327.705 384.704 328.152 384.034 328.152C383.216 328.152 382.695 327.631 382.472 326.738C381.579 322.498 378.529 319.225 374.586 318.109C373.619 317.662 371.611 317.439 370.644 317.439C370.197 317.439 369.825 317.737 369.751 318.332L368.635 350.99C368.635 356.049 370.495 358.355 374.586 359.247C375.256 359.396 375.628 359.917 375.628 360.587C375.628 361.479 375.033 362 374.289 362H350.558C349.888 362 349.442 361.554 349.442 360.735C349.442 359.991 349.814 359.396 350.483 359.247C353.831 357.834 355.319 354.784 355.468 351.064L356.584 318.257C356.584 317.662 356.063 317.439 355.617 317.439C354.501 317.439 352.418 317.588 351.451 317.96C347.285 319.076 344.309 322.275 342.449 326.589C342.077 327.631 341.408 328.152 340.589 328.152C339.92 328.152 339.399 327.631 339.399 326.887L341.184 316.323C341.408 314.91 342.152 312.604 345.202 312.604C348.698 312.604 351.971 312.976 355.988 312.976ZM389.188 312.976H408.009C416.193 312.976 422.293 312.604 425.938 312.604C428.616 312.604 429.658 314.017 429.658 316.249L428.765 324.506C428.616 325.697 428.095 326.143 427.351 326.143C426.756 326.143 426.161 325.771 425.715 324.953C423.855 320.787 421.177 318.704 417.085 317.811C415.225 317.216 409.944 316.918 407.191 316.918C406.67 316.918 406.298 317.216 406.298 317.662L405.778 332.094C405.778 333.508 406.373 334.177 407.861 334.177C409.274 334.177 414.035 334.029 415.3 333.805C417.904 333.582 420.433 333.136 422.59 332.466C423.111 332.318 423.706 332.169 424.153 332.169C424.896 332.169 425.194 332.541 425.194 333.359L424.45 339.534C424.376 340.352 424.078 341.096 423.111 341.096C421.474 341.096 419.243 339.98 416.193 339.534C413.663 338.864 410.39 338.79 407.563 338.79C406.298 338.79 405.629 339.682 405.555 340.724L405.034 353.817C405.034 356.793 406.447 358.206 410.241 358.206C411.952 358.206 415.151 357.908 416.936 357.462C420.879 356.421 424.599 354.486 426.979 350.023C427.351 349.353 427.947 348.981 428.616 348.981C429.434 348.981 429.881 349.577 429.881 350.544L429.286 358.95C429.137 361.33 427.351 362.521 424.896 362.521C423.632 362.521 413.217 362 407.042 362H387.7C386.956 362 386.51 361.554 386.51 360.735C386.51 359.991 386.882 359.471 387.626 359.247C391.494 357.983 391.792 354.486 391.941 351.064L392.982 321.754C392.982 318.927 392.313 316.174 388.891 315.728C388.296 315.654 387.924 315.133 387.924 314.463C387.924 313.571 388.519 312.976 389.188 312.976ZM469.154 352.106L479.941 313.868C480.239 312.901 484.554 312.604 488.868 312.604C492.811 312.604 496.382 312.752 496.531 313.868L501.441 352.85C501.887 356.197 503.672 358.504 506.871 359.247C507.69 359.471 507.987 360.066 507.987 360.661C507.987 361.405 507.466 362 506.574 362H483.215C482.322 362 481.876 361.405 481.876 360.735C481.876 360.14 482.322 359.471 483.14 359.247C485.967 358.727 487.009 357.09 487.009 354.04C487.009 353.073 486.785 351.883 486.711 350.841L484.256 320.861C484.256 320.712 484.256 320.638 484.182 320.638C484.107 320.638 484.033 320.712 484.033 320.861L471.981 361.405C471.758 362 467.592 362.521 464.914 362.521C462.162 362.521 458.144 362.074 457.921 361.33L448.027 320.861C447.953 320.712 447.953 320.638 447.878 320.638C447.804 320.638 447.73 320.712 447.73 320.861C447.432 323.465 447.134 325.994 446.762 328.598L443.787 351.808C443.638 352.775 443.564 353.891 443.564 354.933C443.564 358.132 445.275 359.024 447.73 359.247C448.622 359.396 448.994 359.991 448.994 360.661C448.994 361.405 448.548 362 447.655 362H432.628C431.735 362 431.215 361.479 431.215 360.735C431.215 360.066 431.661 359.396 432.554 359.247C435.455 358.578 437.166 356.272 437.612 352.85L442.968 313.868C443.117 312.901 447.73 312.604 452.267 312.604C456.061 312.604 459.409 312.752 459.632 313.868L468.559 352.106C468.634 352.403 468.708 352.478 468.857 352.478C468.931 352.478 469.08 352.403 469.154 352.106Z" fill="url(#paint3_linear_0_154)"/>
<defs>
<filter id="filter0_f_0_154" x="0.174942" y="0.832169" width="709.547" height="416.668" filterUnits="userSpaceOnUse" color-interpolation-filters="sRGB">
<feFlood flood-opacity="0" result="BackgroundImageFix"/>
<feBlend mode="normal" in="SourceGraphic" in2="BackgroundImageFix" result="shape"/>
<feGaussianBlur stdDeviation="37.8229" result="effect1_foregroundBlur_0_154"/>
</filter>
<linearGradient id="paint0_linear_0_154" x1="582.605" y1="151.374" x2="270.779" y2="184.89" gradientUnits="userSpaceOnUse">
<stop stop-color="#CC00FF"/>
<stop offset="1" stop-color="#8000FF"/>
</linearGradient>
<linearGradient id="paint1_linear_0_154" x1="478.051" y1="300.68" x2="228.581" y2="338.926" gradientUnits="userSpaceOnUse">
<stop stop-color="#CC00FF"/>
<stop offset="1" stop-color="#8000FF"/>
</linearGradient>
<linearGradient id="paint2_linear_0_154" x1="609.456" y1="141.247" x2="263.856" y2="176.635" gradientUnits="userSpaceOnUse">
<stop stop-color="#CC00FF"/>
<stop offset="1" stop-color="#8000FF"/>
</linearGradient>
<linearGradient id="paint3_linear_0_154" x1="493.701" y1="314.765" x2="216.914" y2="355.19" gradientUnits="userSpaceOnUse">
<stop stop-color="#CC00FF"/>
<stop offset="1" stop-color="#8000FF"/>
</linearGradient>
</defs>
</svg>
